<?xml version='1.0' encoding='utf-8'?>
<svg xmlns="http://www.w3.org/2000/svg" enable-background="new 0 0 1920 1893" version="1.1" viewBox="0 0 1920 1893">
<g stroke-width=".394">
	<path d="m993.2 0h8.3c5.5 1.3 11.1 2.4 16.4 4.2 5.5 1.9 9.2 6.7 13.1 10.7 6.1 6.6 11.2 14.8 11.5 24.1 0.6 10.5-4.2 20.3-9.3 29.1-5.1 8.9-11.5 17.2-14.8 27-1.5 4.8 3 8.5 6.6 10.7 10.8 6.1 23 9.2 34.7 13.2 9.2 2.9 17.9 7 26.8 10.8 19.9 8.7 39.7 17.8 58 29.6 8.3 5.5 16.8 11.1 23.5 18.6 4.2 4.7 8.5 9.3 13.5 13.1 0.1-0.5 0.2-1.5 0.3-2 24.6 5.3 49.6-2.6 74.3 1.6 34.3 3.6 68.8-0.3 102.7-5.3 4.5-0.6 7.1-5.1 7.4-9.3 0.7-8.3-0.8-16.8 1.1-25.1 3.1-17.8 19-31.9 36.7-34.3 18.6-2.6 37.5 4.9 51.1 17.4 8.8 8.1 16 19 17.2 31.1 1 9.2-3.9 17.5-6.3 26.1-2.1 7.8-6.6 14.9-13.1 19.7-9.7 7.1-21.6 9.8-32.8 13.7 1.4 4.8 3.5 9.6 7.7 12.7 5.2 3.8 11.5 6.1 15.6 11.3 10.9 13.4 20 28.2 29.8 42.4 15.7 22.1 31.7 44.3 42.4 69.3 2.9 6.6 5.4 13.4 7.8 20.2 2.6 7.3 8.5 12.8 14.4 17.6 16.1 12.6 35.3 20.3 53.3 29.8 26.6 13.9 52.1 30.1 80.2 40.8 6.9 2.6 13.5 6.3 20.8 7.7 2.7 0.5 5.9 0.6 7.9-1.6 8.5-8.6 13.7-20.1 23.2-27.9 4.8-4 10.8-6.4 17-7 17.7-1.4 36.6 4.9 48.1 18.9 10.2 12 13.3 29.2 9.1 44.3-2.6 9.8-7.9 18.8-14.3 26.7-6.3 7.7-14.8 14.3-24.9 15.5-6.4 1-12.6-1.1-18.8-1.9-4.4-0.7-8.8-1.1-13.2-1 0.9 45.9 16.9 89.9 19.8 135.6 0.9 15.8 0.2 31.8-4.1 47 18.6 48.3 42.1 94.6 62.4 142.2 4.9 12.3 8.5 25.2 15.3 36.7 3.2 5.2 7.1 10.5 13 12.9 3.8 1.6 7.9 0.6 11.8 0.5 12.9-0.7 25.2-5.7 38.2-5.1 9.8 0.5 17.9 7.5 23.3 15.2 9.4 13.6 14 30.2 14.5 46.6 0 9.4-1.3 19.6-7.7 27-6.3 7.1-14.6 12.2-23.2 16.1-7.7 3.6-16.6 3.6-24.6 1.1-9.6-3-18-8.7-26.3-14.3-3.7-2.4-7.6-5.2-12.2-5.2-6.2 0.9-9.3 7-12.3 11.8-17.7 32.4-26.4 68.6-40.7 102.5-4.8 11.2-11.3 21.6-18.4 31.5-5.6 7.3-11 16-20 19.4-2.5 8.5-2.7 17.4-2.4 26.2 2.5 55.1-9.4 110.1-3.2 165.2 0.4 6.3 4.3 11.8 9.5 15.2 12 7.8 26.8 10.2 38.3 18.8 4.5 3.4 8.4 8 9.8 13.6 2.4 8.9 2 18.2 1.8 27.3-0.6 11.3-2.2 23.2-8.9 32.6-6.1 8.6-15.8 13.6-25.6 16.8-6.8 2.2-13.8 4.4-21 4.6-7.5 0.2-15-2.5-20.6-7.4-6.9-5.9-11.8-13.9-16-21.9-3.5-6.7-6.5-13.8-11.9-19.3-1.6-1.5-3.9-3.2-6.1-1.9-7.6 4-12.5 11.4-19 16.9-14.5 12.2-30 23-46 33.1-21.6 12.3-40.6 28.3-61.9 41-6.5 3.8-12.6 8.5-19.6 11.4-2.1 0.9-4.4 0.8-6.6 0.8-48 47.7-88.3 102.3-131.3 154.3-2.2 2.9-5.2 5.4-6.5 8.9-1.3 5.2 1.1 10.5 3.4 15.1 5.3 10.9 14.1 19.8 18.4 31.2 5.6 13.8 5.4 30.2-2 43.3-4.8 8.7-12.5 15.7-21.2 20.5-7.1 3.7-14.6 6.2-22.1 8.8-10.8 3.7-22.8 4.2-33.6 0.5-13-4.6-25.1-12-34.5-22.2-6-6.5-10.6-15.9-7.5-24.7 4.3-11 9.8-21.7 11.9-33.5 0.3-2.4 0.6-6.3-2.6-6.8-8.5-1.8-17.2 0.5-25.8 0.3-37.4-0.1-75.2 3-112.2-3.5-10.5-2.2-20.4-6.4-30.9-8.5-2.3-0.4-4.8-1-6.9 0.3-40.9 20.3-83.7 36.2-126.5 51.8-8.7 3-17.2 6.9-26.4 8.3-10.1 2-20.7 3.3-29.7 8.5-5.7 3.1-7.3 9.9-8.7 15.7-2.9 13.2 0.1 26.6 1.8 39.8 1.1 8.6 1.4 17.9-2.7 25.8-4.5 8.7-13.2 14.1-21.9 17.9-6.8 2.4-14.1 3.4-21.3 4.4h-12.1c-9.5-1.4-19.2-3.8-27-9.6-8.7-6.3-13.8-16.6-14.4-27.2-1.1-15.3 4.1-30.3 11.7-43.4 4-6.8 9-12.9 14.3-18.7-9.4-11-21.1-19.8-33.6-26.8-20.4-11.8-42.7-19.8-63-31.9-19.5-12.3-39.8-23.2-59-35.9-1.1-0.6-2.1-1.5-3.4-1.3-21.4 1.2-42.5-3.8-63.2-8.7-15.9-3.8-31.7-7.9-47.8-10.7-8.3-1.4-16.7-2.2-25.1-3.1-13.8-1.2-27.8-2.2-41.4 0.9-6.2 1.6-12.6 4.1-16.7 9.1-3.3 5.9-2.8 12.9-4 19.3-1.7 13-11.3 24.7-23.8 28.9-7 2.6-14.6 2.8-22 1.8-11-1.4-22.6 0.4-33.2-3.4-9.4-3.3-15.2-12.2-19.2-20.8-6.2-14-8.7-29.9-5.4-45 2.1-9.4 7.2-18.7 16-23.3 11.4-6 24.3-7.8 36.3-11.8-10.7-14.6-23.4-27.6-33.5-42.6-16.6-25.2-26.6-54.3-44.5-78.7-6.3-9-13.3-19.5-10.5-31.1-14.6-4.3-28.1-11.7-40.4-20.6-33.3-23.7-59.8-55.8-94.1-78.1-6.3-3.9-12.8-8.5-20.5-8.5-7.5 0.4-12.9 6.4-18 11.2-11.7 11.7-28.3 19.6-45.1 17.4-15.3-2-28.6-11.5-38.4-23.1-11.9-14.3-13.5-35.1-6.9-52.1 3.4-8.8 8.5-16.9 15.2-23.6 4.5-4.5 11.2-5.5 17.3-5.9 7.5-0.5 15 0.2 22.5 1.1 6 1.3 11.1 6 17.4 5.9 3.7-0.2 4.6-4.4 5.4-7.3 2.4-11.4 0.6-23 0.4-34.5 0.2-27.4-4.7-54.6-4.4-82.1 0-10.8-0.2-21.7 2.5-32.2 1.1-4.6 3.3-9.4 7.8-11.7-2-12-7.1-23.2-13.5-33.4-8.8-14.2-19.5-27.3-26.3-42.6-10.1-22.8-22-45-37.7-64.5-3.6-4.3-6.9-9.1-12.1-11.6-6.7-3.5-14.6-3.1-21.9-2.4-11.8 1.4-23.5 4.2-34.9 1.4-13.4-3.5-24.6-13.5-30.6-25.9-3.3-6.5-4.9-13.7-6-20.8v-9.1c0.6-7.9 2.7-15.8 6.6-22.7 6.6-12 18.7-21 32.4-22.8 15.3-2.1 30.5 2.6 44 9.4 4.3 1.9 5.2 7.4 9.4 9.2 18-26.5 31-56 41.9-86 12.9-31.8 36.8-57.9 48.6-90.2 12.7-38 22.9-77.1 27-117 0.9-10.6 1.9-21.3 0.9-32-0.5-13.1 1.9-26 3.7-38.9 0.7-6.1 4.4-11.7 3.7-18-0.4-3.6-3.1-6.3-6-8.2-9.4-5.9-20.8-7.1-30.3-12.8-8.6-6.1-14.2-15.9-16.3-26.2-2.8-13.8 0.3-28.3 6.8-40.7 6.5-12.5 17-23.4 30.4-28.3 10.3-3.5 21.9-4.4 32.1 0 9.8 4.3 17.4 12.1 24 20.2 5.4 8.5 5.3 19.5 10.9 27.9 1.6 2.5 4.6 4.5 7.6 3.7 4.3-1 8.4-3 12.4-4.9 25.9-13.1 45.2-35.6 68.5-52.5 17.5-12.4 38.3-18.5 58.5-24.9 2.2-0.8 5.1-1.1 6.1-3.6 13.3-23 28.8-44.6 45.3-65.4 11.9-14.7 23.8-29.5 37.8-42.3 10.3-10.2 21.6-21 24.6-35.8-14.7-2.1-29.5-7.6-40.2-18.2-7.1-6.9-10.8-16.6-11.9-26.4-1.9-14.8 2.9-30.3 12.9-41.4 9.1-10.2 22.7-16.3 36.4-16.2 13.6 0 28 2.2 39 10.7 7.4 5.5 12.1 14.1 13.7 23.2 1.5 6.8 0 13.7 0.7 20.5 0.4 3.9 2.4 7.8 5.8 10 7.4 5 16.3 7 24.8 8.9 8.3 1.7 16.5 4 24.9 5.3 26.9 4.2 54.1 2.3 81.1 0.2 19.3-1.6 38.6-2.8 58-3.4 23-8.4 43.6-22.1 66-32 33-14.2 66-30.4 92.2-55.5 4.9-4.4 8.9-10.3 9.5-17.1 1.2-10.9-3.5-21.1-6.8-31.2-3.3-9.6-6.2-20.1-3-30.1 3.5-10.3 12.4-17.8 21.9-22.3 11.9-5.2 24.8-7.5 37.6-8.4m-39.7 21.5c-8 6.6-11.8 17.3-10.7 27.5 1.6 13.7 7.7 26.4 14.8 38.1-10.3 22-29.9 37.9-50.1 50.4-17.4 10.7-35.9 19.3-53.9 28.9-17.2 9.6-35.3 17.3-52.5 26.7-7.7 4.3-15.7 8.1-22.3 14-4.2-3.2-9.8-2.8-14.8-3.1-24.3-0.2-48.6 0-72.9 0.6-7.3 0.9-14.7 0.7-22 0.9-13.7 0-27.4 0.6-41-1.3-14.9-1.6-29.5-5.7-42.9-12.3-2.4-2.5-5.9-3.5-8.5-5.7 0.1-10.2-0.1-20.6-2.5-30.6-0.5-2.1-0.8-4.3-2.2-6-3.1-11.5-13-21.1-25-22.9-15.9-2.4-31.7 2.7-46.3 8.7-5.6 11.7-11.4 23.5-13.5 36.4-1.1 5.7-0.6 11.7 1.6 17.1 2.8 7.3 9.3 12.3 15.7 16.2 9.8 5.6 20.5 9.7 31.2 13.4 2.7 10.2-3.4 19.8-9.4 27.5-6.4 7.7-12.8 15.4-18.6 23.6-11.4 15.6-23 31.1-34.4 46.7-12.2 16.4-26.6 31.4-36.6 49.3-1.8 3.6-4.2 7.6-3 11.8-3.7-1.4-7.7-1-11.5-0.2-9.9 2.2-19.2 6.3-28.4 10.4-9 4.2-17.8 8.6-26.4 13.6-22.8 13.8-41.5 33.4-64.7 46.5-7.7 4.6-14.9 10.1-23.2 13.5-5.8 2.4-12.4 3.3-18.4 1.1-3.3-14.4-6.2-29.5-14.6-42-5-7.8-14.3-12.2-23.5-12-13.7 0-27.1 4.3-39.8 9.1-3.6 4.9-5.8 10.8-8.4 16.3-4.7 11.6-8.5 24.8-4.4 37.2 2.8 8.9 10.2 15.4 18.4 19.3 11.1 5.2 23.3 7.5 35.4 8.5 4.3 8.4 4.6 18 5.1 27.2-0.1 20.9-3 41.6-6.7 62.1-7.6 42.6-19 84.5-29.1 126.5-1.1 5.1-2.7 10.2-2.2 15.5 4.7-6.3 7.6-13.6 11.3-20.5 15.4-31.5 30.1-63.3 44.9-95 5.2-11.7 11.5-23.1 14.8-35.5 1.2-3.1 1.5-6.7 3.6-9.3 10.1 0.1 20.1 2.2 29.8 4.6 13.9 3.6 27.7 8.1 40.7 14.3 4.5 2.3 9.3 4.5 12.1 8.9 6.1 9.3 8.8 20.3 11.4 31 8 35.9 10.8 72.9 20.8 108.4 4.1 13.4 8.9 27.3 18.6 37.8 4 3.9 8.9 7.9 14.8 8.1 3.7 0.3 5.2-3.8 5.3-6.8 0.5-9.9-2.5-19.5-4.7-29-2-6.7-1.8-13.8-3-20.7-4.3-26.1-10.7-51.9-13.2-78.3-1.3-14.3-1.9-29.2 2.3-43.1 2.6-8.5 8.2-17 17-20 45.2-3 90.2-9.5 135.5-11.4 3.1 0.3 4.9-2.7 7-4.4 3.9-4 8.7-7.3 12.1-11.8-9.5-3.3-19.4-4.7-29.2-6.3-21.5-3.1-43.1-5.3-64.6-7.6-25.8-2.9-51.8-5.2-77.3-10.3-14.7-2.8-27.8-10.6-39.7-19.5-15.9-11.9-30.3-25.6-44.3-39.7 22-20.3 46.7-37.3 70.7-55.1 16.3-12.1 32.9-23.9 47.8-37.7-0.2-0.4-0.7-1.2-0.9-1.6 1.5 0.3 2.7 0 3.8-1 7.5-6.5 14.4-13.6 21.4-20.6 25.9-26.8 50-55.4 77.9-80.1 0.9-0.8 2.8-2.6 3.7-0.8 8.1 10.3 15.8 20.9 23.1 31.7 8.8 13.4 17.2 27.4 21.7 43 4 15.1 2.9 30.8 3.8 46.2-0.3 37.6-1.4 75.3-0.8 113 0.2 9.8 0.4 19.7 2.8 29.2 6-3.9 11.1-9 16.8-13.3 1.3-3.1 1.5-6.6 2.3-9.9 3.7-22.2 8.8-44.1 13.5-66.1l0.5-0.9c4.1-19.7 8.8-39.3 12.5-59.1 0.7-4.5 4.5-7.6 7.8-10.4 8.5-6.1 19.3-7.1 29.4-6.9 21.2 1.1 41.7 7.1 61.9 13.4 18.4 5.6 36.5 12.6 55.4 16.6 4 0.9 7.7 3.1 11.7 3.9 7.2-1.8 14.4-3.8 21.6-5.7 2.2-0.5 5.1 0.2 6.8-1.6-1-3.7-3.7-6.9-6.7-9.2-3.7-4.3-8.5-7.3-13.2-10.4-16.6-10-35.1-16.1-53.5-22-22.3-7-45-12.8-67.2-20.4-11.2-4.2-22.8-8.2-32.2-15.9-3.3-2.5-5.1-6.4-7-9.9-9.1-16.9-18.7-33.8-23.8-52.4-1.4-5-1.8-10.2-1.3-15.3 14.4-3.1 28.6-7.3 42.6-11.8 27.1-9.3 56-10.3 83.6-17.4 7.9-2.2 16.4-3.4 23.8-7.2 1.2 2 3.8 1 5.7 0.8 15.6-3.5 30.8-8.2 46-12.9 22.7-7.2 44.5-17.5 68-22 15.2-3 30.2-6.8 45.2-10.8 4.8 7.4 6.8 16.1 8.2 24.8 2 13.2 2.4 26.6 2.5 39.9 0.2 7 1.2 14.3-2 20.9-6.2 13.3-16.4 24.1-26.2 34.8-23.1 24.9-48.6 47.7-68.9 75.1-8.4 11.8-16.7 25-16.7 40 8.3-1.5 16.5-3.3 24.8-4.6 3.5-0.2 4.8-4 7-6.1 4-5.3 9.5-9.2 14-14 22.4-22.6 42.3-47.9 67.6-67.6 9.9-7.4 20.8-14.5 33.3-16.1 7-0.6 15.6 0.5 19.9 6.8 25.7 30.5 53.7 59.1 79.1 89.9 5.4 6.5 10.4 13.7 17.8 18.1 4.7 1.5 9.6 2.7 14.5 3.8 1.1-4.2-0.6-8.4-2-12.3-4-9.9-9.1-19.3-14.2-28.7-11.2-20.3-23.1-40.3-34.8-60.3-11-19.2-22.4-38.3-31.6-58.4-6-12.9-7.6-27.3-7.4-41.3-0.3-20.3 2.6-40.4 5.4-60.5 11.4 1.9 22.4 5.9 33.2 9.9 26.5 10.3 52 23.1 78.6 33.3 9 3.3 18.1 6.7 27.6 8.2 0.9-1.6 1.9-3.5 1.2-5.4-1.5-4-4.6-7.2-7.6-10-8.6-7.7-18.3-13.9-28.2-19.9-8.1-4.8-16.2-9.5-24.8-13.2-22.3-9.9-44.5-20.1-66.8-30-10.9-4.7-23.4-7.5-31.8-16.4-2-2.6-4.8-5.6-4.5-9.1 5-5.9 10.1-11.8 14.6-18.1 5.3-7.5 10.5-15.6 11.5-25 0.9-8.2-2.8-16.3-8.1-22.4-8.3-9.6-18.5-17.2-29.2-24-15.9 2.7-32.5 5.7-45 16.1m437.2 107.3c-8.5 5.5-13.3 15.2-15.2 24.9-2.5 10.5-1.7 21.3-2 31.9-9.1 6.1-20 8.8-30.6 10.8-25.8 4.6-52.1 4.4-78.3 4.3-17.9-0.4-35.8-1-53.7-2.1-11.2-0.2-22.3-1.4-33.5-0.7-0.4 0.3-1.1 0.8-1.4 1l3.3 1.8c25.1 10.2 51 18.1 76.8 26.4 22.7 7.4 45.8 13.7 69.3 18.4 0.4 5.3 0.2 10.6-1.2 15.8-4.2 17.2-12.1 33.1-19.9 48.9-2.8 5.1-4.6 11.1-9.4 14.7-9.3 7.6-20.5 12.2-31.6 16.6-23.1 8.8-46.9 15.7-70.2 24.2-18.1 6.7-36.5 13.8-52.2 25.3-6.8 5.4-14 11.8-15.9 20.6 7 2.1 13.9 4.5 21 6.4 7.7-1.9 14.6-6.6 22.4-8.4 5-1.1 9.8-2.7 14.7-4.3 26.9-9.5 53.4-20.5 81.3-26.7 13-2.5 26.8-4.6 39.8-0.6 6.6 2.2 13.3 6.3 15.8 13 8.9 39.1 20.6 77.6 29.4 116.8 2.1 10 3.5 20.7 9.6 29.3 2.3 3.4 5.7 7.5 10.3 6.7 1.7-3.3 2.7-6.9 2.6-10.7 0.1-18 0.1-36 0-53.9 0-10.6-1.1-21.2-1.5-31.8-1-10.1-0.5-20.2-1.7-30.3-0.4-20-2.2-40.1 0.2-60.1 1.3-9.3 4.7-18.1 8.5-26.6 9.6-20.4 22.5-39 35.7-57.3 5.8 4 10.5 9.4 15.4 14.4 14.7 16.6 27 35.1 39.8 53.2 10.7 15.1 21.4 30.4 34.9 43.2 1.6 1.4 3.1 3 5 4 2.8-0.2 4.2-3.3 4.3-5.8 0.4-7.7-2.3-15-4.7-22.1-4.9-13-11-25.6-18.1-37.6-2.7-4.9-6.2-9.1-9.7-13.4-13.7-17.3-27.4-34.6-41.2-51.8-6.7-8.3-14.8-15.5-20.1-25-2.9-4.9-3.9-10.7-3-16.4 11.4-4.5 22.9-9.1 33.1-16.1 6.5-4.5 12.3-10.8 13.9-18.8 1.7-6.6 0.1-13.5-1.6-19.9-3.4-10.6-8.2-20.7-14-30.1-8.3-2.5-16.5-5.4-25.1-6.5-10.5-1.6-22.1-1.5-31.3 4.4m-349.6 37.4c-0.2 10.7 0.7 21.4 2.4 31.9 3.7 22.8 12.4 44.5 23 64.9 10.3 20 22 39.3 31.9 59.5 5.8 12.7 10.3 26.1 18.1 37.9 3.3 4.7 7.3 9.9 13.4 10.8 4.2 0 8.1-2.2 12-3.6 17.8-7.5 34.1-18.2 51.6-26.2 25.4-11.9 55.2-11.7 79.3-26.6 8.1-5.1 14.9-12.8 18-21.9 2.2-5.4 2.1-11.3 4.3-16.7 1.6-4.6 4.4-9.2 3.8-14.2-0.9-4.9-5.8-7.3-9.9-9.2-50.2-24.1-106.3-31-158-51-22.3-8.3-38.7-27-61-35.2-9.2-3.5-19.6-3.9-28.9-0.4m-122.2 12.8c-92.5 30.3-187.6 51.7-281.1 78.3 5.5 3.7 11 7.7 15.1 13 8.5 10.6 12.1 23.9 19.5 35.1 3.9 6 8.3 12 14.7 15.5 8.6 4.8 18.6 5.9 28 8.7 37.7 10.8 76.1 20.4 111.5 37.8 4.3 1.8 8.3-1.9 11.2-4.7 6.4-6.4 11.1-14.2 16.9-21 21.9-26 48.6-48 67.4-76.6 10-15.1 17.3-32.7 17.5-51-0.1-10 0.6-20.2-2.4-29.9-1.1-3.4-3.1-7.3-7-7.9-4-0.4-7.6 1.6-11.3 2.7m498.2 116.3c-0.8 1 0.5 2.9 1.7 2.3 0.8-1-0.5-3-1.7-2.3m-22.2 34.7c-8.8 15.5-17.4 31.8-19.9 49.7-1.7 20.8 10.4 39.2 12.8 59.4 2.1 18.2 2.3 36.6 3.7 54.9 0.4 8.4 1.9 16.6 1.9 25.1 0.4 3.7 0.2 8.9 4.3 10.5 5.5 2.2 11.5 2.4 17.4 2.8 14.3 0.8 28.7-1.1 42.9 1 12.9 1.7 25.5 5.1 38 8.8 19.3 5.5 38.8 12.1 59.1 11.2 10.6-0.3 20.3-5.4 28.7-11.6 7.1-5.5 13.7-12.1 17.7-20.2 2.5-5.1 4-11.2 1.9-16.7-1.5-4.7-5.4-8-9.1-11-38.4-32-76-65.2-109.6-102.4-25.3-28.1-48.3-58.6-65.7-92.3-0.7 1.8-0.4 3.3 0.8 4.6-0.2 0-0.7-0.1-0.9-0.1-0.6-2.4-1.5-4.7-2.6-6.9-7.5 10.9-14.9 21.8-21.4 33.2m-869-21.4c-12.7 8-19.3 22.2-30 32.3-24.3 20.3-47.5 41.8-71.3 62.7-28.7 25.4-58.4 49.7-90.6 70.4 32.3 14 64.4 28.6 98.1 39 40.2 12.6 83 18.2 124.9 12.2 7.3-1 14.1-6 16.4-13.2 3.9-12 1.5-24.7 0.3-36.9-4.2-30.6 3-61.3 1.2-92-0.7-16.6-4.8-33.4-14.1-47.4-6-9.3-10-20.3-18.6-27.7-4.8-4.2-11.6-2.3-16.3 0.6m435 10.9c-16 8.7-29.2 21.6-41.3 35-9.9 11.4-19.4 23.2-27.6 35.8 62.7-7.2 126.3-3.2 188 9.7-19.4-28.7-45.1-52.5-72-74-5.8-4.7-10.1-12.1-18.1-13.2-10.1-1.4-20.1 2.1-29 6.7m-298.9 75.3c-6.7 4.8-9.2 13-12.3 20.1-12 31.1-17.1 64.3-21.5 97.2 40-30.5 82-58.3 123.8-86.2 7.3-3.9 15.5-6 23.1-9.2-27.6-10.3-54.5-23.8-84.1-27.4-9.9-0.9-20.8-0.6-29 5.5m598-2.1c-32.4 8.2-63.8 19.7-94.8 32 61.2 22.4 118.9 54.5 170.3 94.5-1-22.2-3-44.4-7.6-66.1-3.6-16.7-8.6-33.5-18.1-47.9-4.1-6.5-10.4-11.6-17.8-13.7-10.5-3-21.6-1.3-32 1.2m252.9 0.2c3.4 6 8.9 10.5 13.6 15.6 20.5 20.8 41.4 41.3 62.1 61.8 13.4 13.8 26.8 27.7 41.3 40.4-3.5 8-9.7 14.2-16.1 19.9-13.3 11.5-28.1 20.8-42.8 30.3-7.8 4.4-17.3 3.6-25.9 3.2-26.4-2.6-52.1-9.5-78-14.6-23.4-4.7-47.2-9.3-71.1-6.9-8.1 1.2-16.5 3.4-22.6 9 6.3 5.4 11.9 11.5 17.9 17.2 3.7 1.4 7.9 1.1 11.8 1.9 6.5 0.6 12.6 3.2 19 4.5 19.2 4.1 38.7 7 57.9 11.2 15.9 3.5 31.9 7.6 46.7 14.8 8.3 4.2 16.6 9.6 21.6 17.6 2.8 4.8 4.9 10.6 3 16.1-7.6 23.8-14 47.9-20.7 71.9-5.4 19.5-11.5 38.8-17.7 58 2.4 7.6 4.8 15.3 7 23 5.4-4.5 8.7-10.9 12.6-16.7 14.9-24.9 27.7-51 41.2-76.7 10.6-20.2 20.9-40.7 33.4-59.8 7.8-12 19.2-21 31.2-28.5 17-10.6 35.2-19.3 53.7-27.2 9.1 24.3 11.1 50.5 14.2 76 3 24.7 5 49.8 13 73.5 1.8 0 4 0.3 5.3-1.3 3.2-3.8 4.7-8.8 5.4-13.6 1.6-5.7 2-11.6 2.6-17.4 1.2-16.2 1.8-32.5-0.6-48.6-1.5-8.7-2.1-17.5-4-26 0.2-1.9-0.2-3.7-0.6-5.6-1.9-12.8-3.2-25.6-5.7-38.3-0.2-5.6-2.1-11.1-2.9-16.7-1.8-10-2.9-21.7 4.2-29.9 10.3 1.6 20.8 3.1 31.3 3.2 8.5-0.1 17.6-1.5 24.4-6.9 6.2-5.1 9.6-13 11.1-20.8 2.8-10.5 3.2-21.6 3.4-32.4-3.3-3.7-6.2-7.8-10.1-10.8-0.8-1.5-2.2-2.6-3.4-3.8-7.2-6.5-15.2-12.5-24.7-15.2-8.3-2.4-17.5-0.9-24.7 3.8-12.9 8.4-20.9 22.1-27.9 35.4-7.6 0.5-15.2-1-22.5-2.9-16.1-4.5-31.3-11.6-46.2-19-37-18.6-71.8-41.2-107.2-62.5-4.5-2.3-8.6-5.5-13.5-6.2m-552.8 19.7c-16.1 1.2-32.3 1.8-48.3 4-23.7 2.5-47.3 6-70.8 10.5-25.9 4.6-51.5 10.5-77 16.6-4.1 1.2-8.5 1.6-11.9 4.3-36.5 26.3-73.5 52.1-109 79.7-49 38-96 79.4-133.7 128.8-22.7 29.6-41.7 62.1-55.8 96.6-16.2 39.5-25.9 81.5-30.1 123.9-0.1 1.6-0.2 3.2 0.2 4.7l-0.8-0.8c-1 15.6-2.7 31.2-2.5 46.9-0.6 17-0.1 34 0.5 51.1 1 5.2 0.4 10.6 1.2 15.9 3.9 48.6 13.8 96.8 30.2 142.8 13.6 37.9 31.7 74.3 54 107.9 42 63.5 99 116.8 164.6 155.3 75.7 44.8 162.5 70.1 250.1 75.6 14 0.6 28 0.3 41.9 0.4 14.4-0.1 28.8 0.2 43.1-1.2 107.4-8.4 212-46.6 300.5-107.9 62.2-42.7 115.9-98.4 153-164.3 20.5-36.1 36.2-75 46-115.3 5.2-20.6 8.9-41.6 11.2-62.6 3.1-26 3.4-52.3 2.6-78.5-2.2-43.7-9.5-87.2-21.9-129.1-23.3-79-63.7-152.7-117-215.5-49.6-58.4-110.5-107.2-178.7-142-37.3-19.3-77.5-32.6-118.8-40-11.7-2.3-23.5-3.9-35.3-5.1-28.9-3.5-58.3-3.3-87.5-2.7m-688.3 171.4c-20.5 46-42.3 91.4-60.2 138.4-15.8 41-26 83.8-38.1 126-1.6 5.8-4.6 11.5-3.8 17.6 1 5.1 6.9 6.3 11.3 6.5 28.4 0.8 56.6-6.4 82.4-18 36.9-16.4 69.5-40.7 105.5-58.9 5.8-2.7 5.9-10.2 5.8-15.7-1.2-24.1-11.2-46.5-15.2-70.1-4.9-27-6.3-54.7-14.7-81-4.7-14.5-12.3-28.9-25.4-37.3-13.9-9.1-31.5-9.8-47.6-7.5m177.2 14.6c-6.9 0.7-14 1.4-20 5.2-10.5 6.2-16.3 18.9-15 30.9 0.6 5.9 1.9 11.6 2.7 17.4 6 34.6 11.5 69.3 17.6 103.9 21.8-61.8 58.1-118 103.5-164.9-29.6 0.5-59.2 4-88.8 7.5m965.7-4.2c23.1 27.1 44.1 56.2 61.4 87.4 10.3 18.1 18.9 37.2 27.1 56.3 6.8-20 9.2-41.1 14.1-61.6 2.1-9.5 9.7-16.8 11.1-26.5 0.9-8.5-2.5-17-7.9-23.4-11.4-13-28.4-19.5-44.9-22.9-8.7-2.1-17.8-1.5-26.5-3.5-11.5-2.1-22.9-4.1-34.4-5.8m259.3 13.5c-6.8 1-13.3 3.7-19.2 7.1-13.9 8.2-25.3 19.9-35.3 32.4-24.4 30.4-37.7 67.6-58.9 100-6.6 10.2-14.3 19.9-18.3 31.5-2.1 6.1-3 13.1 0.1 19 3 6.2 9.5 9.2 14.5 13.4 30.6 24.2 56.6 53.8 88.7 76.1 13.2 9 27.5 17.2 43.4 20.4 16.3 1.7 33.2 0.9 49-3.7 5.5-1.9 12.6-4.5 13.8-11-0.1-8.3-2-16.4-3.3-24.5-5.9-30.5-12.5-60.9-19.7-91-7.9-9.9-14.3-21-18.3-33-14.2-41.7-9-87.2-22.8-129-1.2-2.5-1.3-5.7-3.5-7.6-3.4-0.6-6.8-0.6-10.2-0.1m52.2 121.9c-0.3 2.7 0 5.5 0.5 8.2 1.8 9.7 3.7 19.4 5.7 29 9.3 43.8 19 87.5 29.6 131 0.9 4.1 2.6 8.2 2.6 12.5-7.7 4.8-16.2 8-24.8 10.3-19.9 5.5-40.4 8.8-60.9 10.5-10.9-1.6-19.9-8.5-28.5-14.8-17.3-13.5-33-28.9-49.2-43.7-13.5-12.1-27-24.5-42.1-34.6-2.6-4.3-8-6.3-12.6-7.8-5.6-3.4-11.9-6.2-18.4-7.3 1.8 9 3.5 17.9 4.7 27 0.6 2.5 0.4 5.2 1.8 7.4 11.9 13.1 25.9 24 39.1 35.8 14.9 13.1 29.7 26.5 42 42 6.9 9.1 13.7 19.2 14.9 30.8 0.5 6.2 0.2 13.5-4.7 18-32.4 29.1-62.5 60.8-95.6 89.2-3.8 3.7-8.8 7.2-9.7 12.8-1.1 4.9-2.6 9.7-3.5 14.7 2.2-0.2 4.4-0.3 6.5-1 9.2-3.2 17.6-8.2 26.1-12.9 38.1-22 74.3-47.1 112.6-68.5 6.7-3.5 13.3-7.3 20.6-9.5 11.6-3.9 23.8-4.5 35.9-5 18.6 0.2 37.1 1.8 55.5 3.9-0.3 6.8-2.5 13.3-4.2 19.9-10.1 33.2-25.2 64.6-36.5 97.3-3.1 9.3-6.3 18.6-7.4 28.4 2.6 1.4 5.6 1 7.9-0.8 6.4-5 11-11.8 15.4-18.4 10.3-16.1 19.4-33 26.4-50.8 8.5-20.7 17.2-41.3 25.6-62.1 3.8-9.4 6-19.5 11.5-28.1 3-4.8 7.4-9 13-10.5 8 6.9 16.4 13.3 25.5 18.8 8.3 4.8 18.4 8.5 27.9 5.3 8-2.4 13.9-8.6 19.4-14.5 5.5-6.3 10.2-13.3 14.8-20.4 1.7-2.3 0.8-5.2 0.6-7.7-2.2-11.2-5.1-22.5-11.1-32.4-2.9-4.5-6.3-9-11-11.7-3.4-3.4-8.3-4.3-12.8-5.1-8.4-1.1-16.8 1.3-24.7 4.1-1.3 0.6-3.1 0.5-3.7 2-6.6 2.1-12.1 6.3-18.1 9.5-4.4-0.4-8.1-3.6-11.6-6.1-14.6-11-22.3-28.5-27.6-45.5-6.6-20.3-10.3-41.7-20.1-60.9-5.9-10.4-10.7-21.4-16-32.2-7.9-16.1-15.6-32.4-24.8-47.9-1.6-3-3.2-6.5-6.5-8.2m-1540.9 5.5c-5.2 4.3-8.5 10.4-11.9 16.1-10.9 20-18.7 41.5-27.7 62.4-7.8 18.5-15.8 37-23.6 55.5-4.3 9.8-6.6 20.5-12.3 29.7-2.9 4.9-7.3 9.1-12.7 11.2-1 0.4-1.6-0.7-2.4-1.1-9.9-8.1-19.8-16.5-31.5-21.6-7.4-3.2-16-4.2-23.5-0.6-12.7 6-20.8 18.1-28.7 29.2-1.7 2.8-4.8 5.4-3.8 9 2.3 14 5.7 28.5 14.4 40 6 8.2 16 13 26.1 12.5 12.9-0.6 25-6.2 36.1-12.6 2.4-1.2 4.9-4.1 7.7-2.1 8 4.8 14.5 11.6 20.5 18.7 17 21 30 44.9 42.4 68.9 12.1 23.3 22.7 47.3 34.5 70.7 1.1 1.9 2.2 4 4.3 4.9 0-1.7 0-3.3-0.2-4.9-2.1-15.5-5.3-30.8-8.4-46.1-1.5-6.9-2.4-13.9-4.6-20.6-1.7-11.9-5.1-23.5-7.2-35.3-2.6-14.1-3.1-28.8-7.7-42.4 2-2.5 5-3.9 7.9-5.1 11-4.3 22.8-5.5 34.5-6.8 11.7-0.8 23.5-1.4 35.2-1.3 4.1 0.1 8 1.9 11.6 3.6 12.2 6.7 22.7 16 33.1 25.1 12.6 11.5 24.8 23.2 37.3 34.8 16.9 15.1 33.7 30.7 54 41 9.4 4.7 20.5 7.9 30.8 4.7-0.4-5.5-1.1-11.1-2.3-16.4-6.8-7.3-15.3-12.5-22.5-19.3-5.2-6.2-11.3-11.5-17.2-17-20-18-41-35.1-58.3-55.9-7.9-9.8-15.4-20.5-17.9-33.1-0.9-6.6-0.6-14.1 3.7-19.4 32.7-28.6 62.9-59.9 96.1-87.9 4.7-3.9 9.1-8.3 12.3-13.5 1.9-2.3 3.5-5.1 4.2-8-0.1-2.5 1.2-6.3-2-7.2-2.9-0.3-5.7 0.6-8.3 1.8-14.2 5.8-27.4 13.9-40.7 21.5-20.4 12.1-40.6 24.8-60.9 37.1-15.8 9.4-31.5 19.1-48.2 26.9-18.8 8.8-40 7.9-60.1 7.4-13.3-0.9-26.6-2.2-39.8-4 0.1-3.9 1.1-7.7 1.9-11.5 9.8-40.8 26.1-79.7 37.2-120.1 1.6-6.4 3.6-12.7 4.2-19.3-1.4-0.6-3.8-1.2-5.6 0.4m143.1 165.1c-4.9 4.8-9.8 9.6-13.6 15.3-2 3-3.8 6.5-3.4 10.2 0.6 8.1 6 14.7 11.5 20.3 17.9 17.2 32.2 37.7 49.1 55.9 10.2 11 20.7 22.2 33.6 30.1-2.5-31.3-1.6-62.7-1.1-94.1 0.9-39.3 3.4-78.6 11.4-117.2-28.7 27.1-59.8 51.5-87.5 79.5m1208.4-19.1c5.4 55.9 2.3 112.4-7.8 167.5 13.4-8.6 25.4-19.1 37-30 13.6-13.1 26.4-27.1 37.6-42.4 3.9-5.2 6.2-11.8 5.6-18.4-0.8-8.7-5.4-16.6-11.4-22.7-19.2-19.3-38.8-38.3-61-54m-1335.8 95.5c-5.6 1.2-11.5 3.6-14.7 8.6-3.6 5.1-3.4 11.7-2.9 17.6 1.6 12.3 7.3 23.6 10.9 35.3 9.6 30.1 13.5 61.5 18.8 92.5 1.1 7.4 2.7 14.7 3.6 22.1 2.3 16.6 2.9 33.4 4.9 50 1.3 9.7 0.2 19.6 2.3 29.1 0.4 1.3 0.6 3.1 2.2 3.6 3.7 1.7 7.9 1 11.7 0.1 11.2-2.7 21.3-8.4 31.7-13.1 9-4.1 16.7-10.5 23.4-17.8 24.1-27 35.5-63 61.5-88.5 6.3-7 12.8-14.8 14.5-24.3 1.2-6-2.6-11.3-6.5-15.5-8.7-9.1-19.9-15-30.4-21.6-20.5-12.3-35.1-31.7-50.9-49.1-11.2-12.8-23.7-24.6-38.3-33.3-13.9 1.9-28 1.3-41.8 4.3m1486.4 52.8c-35.7 13.7-66 37.5-99.7 55.2-10.1 5.1-20.4 9.8-29.6 16.4-3.5 2.7-7.3 5.8-8.5 10.2-1.6 6.8 0.1 13.8 1.8 20.4 6 20.6 16.5 39.5 24.4 59.3 3.5 8.9 4.5 18.4 6.8 27.6 4.1 18.1 8.2 36.9 19.3 52.2 9.7 13.5 24.5 22.2 39.9 27.9 4.3 1.7 9.6 1.4 13.3-1.7 6.3-5 9.3-12.8 12-20.1 4.4-12.2 6.4-25.1 10.9-37.2 12.7-35.8 30.6-70 37.4-107.8 1.7-9.5 2.4-19.2 5.3-28.4 9.1-30.4 30.9-55.4 37.8-86.5-24.1-0.1-48.5 3.8-71.1 12.5m-1287.6 51.3c-9.3 10.6-17 22.3-25 33.8-21 31.1-40.5 63.2-62.6 93.6-6.2 8.3-12.6 16.7-20.9 23-14.3 10.9-31 17.9-47.6 24.4-9.9 3.7-19.8 7.5-30.1 10.2-4-14.6-6.4-29.7-8.1-44.7-0.3-2.6-0.3-5.2-1.2-7.6 0.1-6.2-1.1-12.4-1.5-18.6-1.2-9.1-1.3-18.4-3.2-27.4-0.8-12.6-3.4-25-6.2-37.3-1.7-0.5-3.7-1.3-5.2 0-3.5 2.9-4.5 7.6-5.5 11.9-2.1 10.5-2.3 21.2-2.2 31.9 0.2 26.4 2 52.7 2.8 79 0.2 9.7 1 19.4 2 29.1 0.9 9.9 0.3 21.3-7.3 28.6-9.9-2.6-19.9-5.2-30-6.2-7.7-0.6-15.9-0.8-23 2.7-6.9 3.3-11.5 9.9-14.4 16.7-4.8 11.5-6.6 23.9-8.3 36.1 7.8 11.4 16.4 22.8 28.3 30.2 7.1 4.5 15.9 6.8 24.3 4.8 10.6-2.5 19.1-10 26.2-17.9 4.4-5.3 8.7-10.8 12.1-16.8 8-0.5 16 1 23.7 3.2 17.9 5.3 33.7 15.8 48.5 27 17.2 13.1 33.1 27.9 51 40.1 14.7 11.4 29.2 23.2 44.6 33.6 4.5 2.7 8.8 6.5 14.3 7-0.5-2.6-2.2-4.6-3.7-6.6-23.2-29.7-48.3-57.8-72-87-9.8-12.9-20.3-25.3-31.3-37.3 4.1-7 10.2-12.4 16.6-17.2 14.5-10.5 30.5-18.5 46.4-26.6 3.6-1.9 7.7-2.3 11.6-2.4 9.9 0 19.5 2.3 29 4.7 24.3 6.4 47.9 15.2 71.9 22.3 17.3 5 34.9 9.8 53 10.9 11.5 0.5 24.4-0.4 33.4-8.4 1.8-1.2 2.5-3.2 2.7-5.3-2.7-2.3-4.7-5.4-7.6-7.4-12.2-5.8-26.3-6.1-38.5-11.9-32.9-11.4-67.7-17.8-98.9-33.8-9-4.9-18.1-10.6-24.3-18.9-4.3-5.7-7-13.2-5.1-20.3 16.1-37.2 29.3-75.6 45.8-112.7 3.3-7.8 7.7-15.4 8.4-24-0.3-5-1.4-9.9-2.4-14.7-0.3-0.2-1-0.5-1.3-0.7-3.7 0.8-6.5 4.1-9.2 6.9m1111.3 40.1c-2 7.2-4.7 14.1-6.8 21.2 1.4 7.6 5.6 14.5 7.1 22.2 1.9 10.8 5.4 21.1 8.6 31.6 6.9 22.2 14.2 44.5 17.9 67.5 1.7 11.8 2.8 24-0.5 35.6-1.8 6.5-5.5 12.5-11 16.5-3 2.3-7 2.2-10.5 2.9-35.8 6.6-71.1 15.4-107 21.7-7.8 1.5-15.7 2.2-23.4 4.3-3.9 0.9-6.5 4.3-9.6 6.7-2.6 2.4-5.6 4.3-8.1 6.8 0 2.3 2.8 2.7 4.5 3.4 10.6 2.7 21.7 2.9 32.6 3.3 13.3 0.1 26.7 0.8 40 0.6 9.7 0.2 19.3-0.7 29-0.4 24 0.2 48-0.3 72 1.9 15.6 1.2 30.1 8.1 43.3 16.1 16.4 9.8 31.6 21.5 46.5 33.4-7.8 9-16.5 17.2-25.4 25.2-17.4 15.4-35.5 29.9-53.2 44.8-12.4 10.6-24.9 21.1-36 33.1-0.8 1-2.6 2.5-1.1 3.7 2.1 2.8 6.1 1.7 9 1 8.5-2.8 16.2-7.5 23.8-12.1 15.7-9.8 30.4-20.8 45.4-31.7 17.1-12.3 34.2-24.5 51.2-36.9 8.4-5.8 15.6-13.3 24.6-18.3 5.5-3.3 12.1-4.7 18.4-3.5 4.9 12.8 8.8 26.2 17 37.3 4 5.6 9.8 10.3 16.6 11.8 6.9 1.7 14.2 0.4 20.9-1.4 9.9-2.8 19.3-7 28.5-11.6 5.2-12.9 10-26.4 9.4-40.5 0-7-2.1-13.9-6.3-19.5-4.6-6-11.4-9.8-18.5-12.1-11.2-3.6-23-4.4-34.7-4.1-7.4-11.6-8.4-25.9-9.7-39.3-1.6-26.4-0.2-52.8 1.9-79.1 2.1-25 4.9-50 7.8-74.9 1.1-11 3-22.1 2.3-33.2-3.1 3-3.8 7.5-5.6 11.3-14.7 39.3-27.9 79.2-41.5 118.9-4.3 12.3-6.2 25.1-9.3 37.7-6.2 0.2-12.5 0-18.6-1.3-16.6-3.4-32.6-9.2-48-16.1-5-2.5-10.6-4.4-14.1-8.9-5.9-7.1-9.4-15.8-12.7-24.4-11-30.8-17.6-62.9-28.2-93.8-4.9-14-10.2-28-18.6-40.3-4.9-7.3-11.1-14.7-19.9-17.1m-1104 45.9c-7.7 17.5-18.9 33.7-23.2 52.6-1.2 5.7-2 12.3 1 17.6 3.4 5.2 9.6 7.3 15.3 9.1 10.2 2.8 19.8 7.2 29.8 10.5 21.5 7.6 43.5 14.6 66.1 18.1-33.6-44.1-58.6-94.5-73.8-147.8-4.7 13.5-9.4 26.9-15.2 39.9m1044.5 88c-3.7 6.4-8.2 12.4-11.3 19.2-9.3 18.6-22.1 35.3-36.2 50.5 27.9-2.1 56.2-5.7 82.4-16.3 7.8-3.3 15.6-7.2 21.8-13.1 7.9-8.7 9.1-21.1 9.8-32.3 0.3-14.4-1.5-28.7-4-42.9-3.8-20.8-8.9-41.4-15.9-61.3-12.9 33.3-28.2 65.6-46.6 96.2m-1135.2 67.4c-7.2 5-14.2 11.2-17.1 19.8 13.6 19.9 31.2 36.5 47 54.6 11.4 12.9 21 27.2 30.8 41.3 21.9 32 42.7 65.1 69.9 93 6.2 6.4 13.3 12.7 22.1 14.9 6.3 1.7 13.2-0.5 18-4.7 6.6-5.8 10.9-13.7 14.4-21.6 8-18.8 12.9-38.7 16.9-58.6 5-26 8.3-52.4 9-78.9 0-5.8 0.7-12-1.9-17.5-3-6.9-9.7-11.3-16.5-14-13.7-5.5-28.8-6.1-42.6-11.1-38.6-13.1-76.4-30.4-117.3-35.1-11 5.7-22.4 10.8-32.7 17.9m225.3 5.7c-2.7 12.4-4 25.1-5 37.7-1.1 4.7-0.9 9.5-1.5 14.2-0.4 4-1 8.1-0.6 12.1-0.9 4.2-0.8 8.6-1.1 12.9-2 23.7-3.3 47.3-6 70.9-1.6 11.8-2.7 24-7.4 35.1-4.5 10.8-11 20.6-17.9 30-10.1 13.5-21.3 26.1-32.8 38.4-1.1 1.2-2.6-0.7-3.4-1.4-31.5-33.1-55.8-72.3-87-105.7-3.7-0.9-5.7 3.6-5.3 6.6 0.5 8.3 4.1 16 7.4 23.5 4.1 9.4 9.2 18.3 14.3 27.2 10.8 18.7 25.5 34.5 38.1 52 5.5 7.4 9.9 15.4 15.3 22.9 5.5 8.1 11.7 17.2 10.9 27.5-0.2 1.6 0 3.9-1.6 5-11.8 3.1-23.7 6.1-34.5 11.8-6.1 3.2-11.6 7.8-14.8 14-3.3 6.6-2.8 14.2-2.2 21.3 1.8 11.4 5.6 22.5 10.2 33.1 13.1 6 26.6 12.2 41.3 12.4 6.1-0.3 12.5-1.4 17.6-4.9 7.9-5.1 12.7-13.7 15.5-22.5 3.3-9.6 4.2-19.8 5.3-29.8 9.3-4.8 19.3-8 29.7-8.9 11.9-1.7 24-0.5 35.9 1 24.2 3.2 47.7 10.1 71.8 13.4 20.1 2.1 40 6.2 60.2 6.9 4.1-0.1 8.5 0.8 12.2-1.5-2.5-2.2-5.5-3.5-8.5-4.8-26.2-11.9-53-22.3-79.6-33.4-21.9-8.7-43.3-18.8-65.9-25.7-0.7-7.8 2.4-15.2 5.4-22.2 7.5-16.5 17.8-31.4 27.9-46.4 3-4.7 7.9-7.7 12.8-10 7.2-3.5 14.9-5.8 22.5-7.9 24.1-6.3 48.8-10 73.2-15.3 18.6-4.1 37.4-8.7 54.6-17 9.9-5 20-11.8 24.1-22.6 1.2-2.6 1.1-5.7-0.6-8-5.3-2.5-11.3-1.5-16.8-0.3-8.3 1.5-16.2 4.5-24.4 6.2-14.2 1.5-28.1 5-41.9 8.2-19.9 4.5-39.8 9.1-60.1 10.7-12.6 0.4-25.7 1.2-37.6-3.7-6.7-2.7-12.8-7.7-15.5-14.4-4.2-44.1-12.2-87.7-15.4-131.9-5.5-4.9-10.8-9.9-16-15-0.8-1-1.8-1.4-2.8-1.7m35.7 31.1c3.7 27.7 9.5 55 12.7 82.8 1.2 8.5 2.4 18 8.9 24.2 4.8 4.5 11.7 5 18 5.5 18.1 1.6 36.3 0.4 54.2-2.1 23.6-3.2 46.7-9 70.1-12.9-58.7-25-114.7-56.8-163.9-97.5m767.6 18.8c-4 4.4-6 10.3-8.1 15.8-3.2 8.6-4.7 17.9-9.3 25.9-8.8 20.4-15.1 41.7-23.5 62.2-6.8 16.5-14 33.1-25.1 47.1-6.1 7.7-14.2 14.3-24 16.3-2.9 0-6 0.4-8.7-0.9-39-20-79.5-36.7-118.1-57.5-5.7-3.1-11.9-5.3-18.3-6.2-4-0.5-7.8 1.5-11.6 2 0 1.7-0.3 3.6 0.9 5 5 7 11.7 12.4 18.1 17.9 17.4 14.5 35.6 27.8 53.6 41.5 14.1 10.4 28 21.3 42.1 31.8 3.3 3.8 7.5 6.8 11.8 9.6 7.1 6.4 14.4 12.7 20.5 20.1 1.5 3.4 3.9 6.4 5.6 9.7 1 1.6 1.6 3.5 3.1 4.8 10.5 21.8 17.2 45.1 23 68.4-13.8 3.2-27.9 4-41.9 4.8-12.3 0.2-24.6 1.2-37 1.2-14.4 0-28.7 0.8-43.1 1.2-11.5 1-23.1 1.4-34.4 4.1-0.2 2.4 0.7 4.8 2.8 6 6.5 4.1 14.3 5.1 21.7 6.5 21.8 3.3 43.8 4.5 65.9 4.6 15 0.9 30 0.3 45 1.4 10.3 0.2 20.7 0.4 31 0 9.4-0.1 19.8-0.7 27.9 5 1.7 1.4 4.7 2.9 3.6 5.6-4 13.4-9 26.9-8.2 41.1-0.2 8.8 4.8 17 11.9 21.9 6.5 4.5 14 7.3 21.6 9.4 5.5 2.9 11.9 3.7 18 4.7 1.7 0.6 3.2-0.5 4.5-1.5 11.6-7.6 23.8-15.7 31-27.9 5.2-8.3 6.3-19.1 2.4-28.1-5.8-14.2-18.1-24.3-29.9-33.5-0.9-3.6 1-7.4 1.9-10.9 5.5-15.4 14.8-29.1 24-42.4 23.2-32.3 49.4-62.2 76-91.6 10.1-11.8 21.2-22.8 30.9-35 2.7-2.1 4.6-5 6.8-7.6 1.4-1.8 3.2-3.6 3.2-6.1-5 2.7-9.7 5.9-14 9.6h-0.3c-35.7 26.1-70.1 53.8-105.9 79.8-9.4 6.2-18.8 12.6-27.5 19.9-2.5-1.4-4.9-2.8-7-4.6-12.9-10.4-23.7-23.3-33.3-36.7-4.1-6.1-8.5-12.2-10.9-19.1-1.9-11.7 1.5-23.3 4.9-34.3 2.7-9.1 6.3-17.9 9.3-26.9 0.5-0.2 1.5-0.7 2-0.9 0.9-3.8 2.3-7.4 2.9-11.3 9.3-23.2 18.8-46.5 24.9-70.8 2.5-9.5 3.5-19.3 3.1-29 0.2-7.9-2.1-16.3-7.7-22.1-1.9-2.5-6.2-2.4-8.1 0m120.4-0.4c-28.2 0.8-56.2 3.8-84.2 7.5-0.7 6.3-0.4 12.6-1.3 18.9-3.8 34.4-17.1 66.7-29.1 98.8-6.4 15.7-16.3 30.8-16.5 48.3-0.3 11.1 5.3 20.9 9.1 30.9 3.3 7.6 6.9 15.9 14 20.7 5.3 3.6 12.3 2.4 17.4-0.8 15-8.9 28.4-20.2 41.5-31.6 14.5-12.8 28.5-26.2 43.3-38.7 44.4-37 96.5-64.3 137.5-105.5 2.7-2.4 3.9-6.4 2.2-9.7-2.4-4.9-7.1-8.2-11.5-11.1-9.8-6.1-20.5-10.5-31.3-14.6-9-3.4-18-6.9-27.5-8.8-20.9-4.2-42.4-4.8-63.6-4.3m-316.4 91.2c12.7 5.1 24.9 11.4 36.4 18.8 17 10.4 34.4 21.7 54.6 24.6 7 0.7 15 1.4 21-3.1 7.5-5.7 12.6-13.9 17-22 3.6-6.7 6.1-13.8 8.1-21 6.9-22.8 16.8-44.7 23-67.7-50.4 29.5-104.4 52.8-160.1 70.4m-364.3 4.1c-0.1 9.6 4.3 18.4 7.5 27.2 12.2 29.1 26.5 57.3 39.8 85.9 8 17 16 34 22.4 51.6 4.2 11.3 5.3 23.6 4.6 35.6-1.1 22.5-5.9 44.5-11 66.4-7.5-1.9-14.8-4.5-22.1-7.2-22.6-8.6-44.5-18.8-66.6-28.6-15.8-6.9-31.6-13.9-48.1-18.9-2.4-1.3-4.1 2.4-3.3 4.3 2 5.2 6.8 8.5 11 11.8 17.4 12.7 37.1 21.8 55.9 32.4 18.4 10.1 36.8 20.5 55.2 30.5 8 4.5 16.6 7.6 24.3 12.6 6.1 3.9 11.5 9.5 13.2 16.8-8.5 8.4-17.2 16.7-23.9 26.7-4 6-7 12.9-6.7 20.2 0.4 8.3 4.9 15.7 10.1 22 6.4 7.5 13.9 14 21.6 20.3 1.6 1.7 4.2 1.1 6.3 1.1 12.5-1.1 25.3-2.8 36.6-8.7 7.1-3.7 13.2-9.7 15.8-17.3 3.6-10.2 1.8-21.3-1.2-31.4-2-7-5.1-13.5-8-20.1 1.3-4.3 4.8-7.7 7.6-11.2 12.4-14 29.2-23.3 46.2-30.8 20.4-9 41.8-15.4 62.7-23.3 8.4-3.1 16.4-7.1 24.9-10.1 18.8-7.6 38.1-14.3 55.6-24.7 0.3-1 0.6-1.9 1-2.8-10.2 0.3-20.2 2.5-30.2 4-38.4 6.2-76.6 14.3-115.3 18.9-10.5 1.3-20.8 3.6-31.2 5-4.6-8.6-5.7-18.4-6.2-28-0.3-13-0.1-26.1 1-39.1 0.5-5.7 0.1-11.7 2.7-16.9 3.4-6.9 8.4-12.8 13.5-18.4 25.4-26.4 55.4-47.9 81-74.1 9.8-10 19.3-20.7 25.6-33.3 3.7-7.6 6.2-16.6 3.6-24.9-0.9-2.7-3.7-4.5-6.5-3.5-5.7 1.7-10.2 6-14.6 9.9-6.9 6-12.4 13.7-20.2 18.8-8.1 6.2-15.5 13.2-22.9 20.1-14.3 13.1-28.4 26.4-43.9 38-11.4 8.3-23.4 16.4-37.1 20.1-8.3 2-17.8 1.9-25-3.2-1.8-1.6-2.9-3.7-4.3-5.5-23.8-33.4-50.1-65-73.3-98.9-4.7-7.3-10.5-14.4-18.3-18.6-3-1.3-6.8-3-9.8-0.7m38.6 5.9c21.8 30.7 42.4 63 70.7 88.3 4.4 3.8 8.9 8.2 14.8 9.6 8.6 2.3 17.5-0.9 25.1-5 10.2-5.7 19-13.4 27.3-21.5 13.6-13.1 25.3-27.9 37.7-42.1 5.7-6.8 13.1-11.9 19.2-18.3-65 0-130.4-0.5-194.8-11m262.4 43.7c-12 16.3-27.7 29.3-43.1 42.3-16.9 14-34.2 27.6-49.9 43-11.3 11.2-22 23.4-29.1 37.7-3.7 7.4-6.1 15.4-7 23.7-1.1 9.3-3.2 18.5-3.1 27.9 0.2 3.9 1.1 8.7 4.9 10.6 4.6 2.2 10 0.8 14.7-0.5 10.3-3.3 20.5-6.6 30.9-9.5 42.3-11.8 86.2-17.2 130-17.1 15.7 0 31.3-0.6 46.9-1.1 14.4-0.3 28.7-1.3 43.1 0 7.3 0 15.3 1.2 21.9-2.5 3.8-2.3 2.6-7.2 2.5-10.9-0.8-18.3-7.8-36.1-19.6-50-12.7-15.2-29.1-26.4-45.4-37.3-15.5-10.3-31.2-20.5-44.9-33.1-9-7.9-17.9-16.7-29.4-20.9-7.4-3-15.5-2.9-23.4-2.3m-337.7 0.6c-29.5 2.4-57 14.7-86.1 19.4-11.9 2.2-24 1.2-36 2.1-7 0.8-14.2 3.1-19.5 7.8-10 13.6-18.5 28.2-25.9 43.3-1.9 3.8-2.5 8.9 0.7 12.3 4.6 4.8 11.3 6.4 17.3 8.7 50.3 18.8 99.6 40 148.9 61.1 16.9 6.8 32.1 16.9 48.5 24.8 9.7 4.7 19.5 9.2 30.1 11.3 4.7 0.8 10 1.2 14.2-1.5 3.4-2.1 4.8-6.2 5.1-10 2-15.7 1.3-31.8-2.4-47.2-4.7-20-14.4-38.3-24.9-55.8-10.2-17-20.6-33.9-29.1-51.8-4.2-8.3-8.7-17.3-17.3-21.9-7.2-4.3-15.8-3.1-23.6-2.6z" stroke="#000"/>
	<path d="m953.5 21.5c12.5-10.4 29.1-13.4 44.7-15.8 10.6 6.7 20.9 14.4 29.2 24 5.3 6.1 9 14.1 8.1 22.4-1 9.3-6.1 17.5-11.5 25-4.5 6.3-9.6 12.1-14.6 18.1-0.4 3.5 2.4 6.5 4.5 9.1 8.5 8.9 20.9 11.7 31.8 16.4 22.3 9.9 44.5 20.1 66.8 30 8.6 3.7 16.8 8.4 24.8 13.2 9.8 6 19.6 12.2 28.2 19.9 3.1 2.8 6.1 6 7.6 10 0.7 1.9-0.3 3.8-1.2 5.4-9.5-1.6-18.6-5-27.6-8.2-26.5-10.3-52-23.1-78.6-33.3-10.8-4.1-21.8-8-33.2-9.9-2.7 20.1-5.7 40.2-5.4 60.5-0.2 14.1 1.4 28.5 7.4 41.3 9.2 20.2 20.6 39.2 31.6 58.4 11.7 20.1 23.6 40 34.8 60.3 5.1 9.4 10.2 18.8 14.2 28.7 1.5 3.9 3.1 8 2 12.3-4.9-1.1-9.8-2.3-14.5-3.8-7.4-4.4-12.5-11.6-17.8-18.1-25.4-30.8-53.4-59.4-79.1-89.9-4.2-6.4-12.8-7.5-19.9-6.8-12.5 1.5-23.4 8.7-33.3 16.1-25.3 19.6-45.2 45-67.6 67.6-4.6 4.8-10 8.7-14 14-2.2 2.1-3.5 5.9-7 6.1-8.3 1.3-16.5 3.1-24.8 4.6 0-14.9 8.3-28.2 16.7-40 20.3-27.4 45.8-50.2 68.9-75.1 9.7-10.8 19.9-21.6 26.2-34.8 3.2-6.5 2.1-13.9 2-20.9 0-13.3-0.5-26.7-2.5-39.9-1.3-8.6-3.3-17.4-8.2-24.8-15 4-30 7.9-45.2 10.8-23.5 4.5-45.3 14.8-68 22-15.2 4.7-30.5 9.5-46 12.9-1.9 0.2-4.4 1.2-5.7-0.8 0.3-0.3 1-0.8 1.4-1 6.6-5.9 14.7-9.8 22.3-14 17.2-9.4 35.4-17.1 52.5-26.7 18-9.6 36.5-18.2 53.9-28.9 20.2-12.5 39.9-28.4 50.1-50.4-7.1-11.6-13.2-24.4-14.8-38.1-0.9-10.6 2.8-21.3 10.8-27.9z" fill="#32DE34" stroke="#32DE34"/>
	<path d="m422.3 377.4c3.8-0.8 7.8-1.3 11.5 0.2 0.3 0.7 0.7 1.3 1 2 0.2 0.4 0.6 1.2 0.9 1.6-14.9 13.8-31.6 25.5-47.8 37.7-24 17.8-48.7 34.8-70.7 55.1 13.9 14.1 28.4 27.8 44.3 39.7 11.9 8.8 25 16.7 39.7 19.5 25.5 5.1 51.5 7.4 77.3 10.3 21.6 2.3 43.2 4.5 64.6 7.6 9.8 1.6 19.8 3 29.2 6.3-3.5 4.5-8.2 7.7-12.1 11.8-2.1 1.7-3.9 4.7-7 4.4-45.3 1.9-90.3 8.4-135.5 11.4-8.8 3-14.4 11.5-17 20-4.1 14-3.6 28.8-2.3 43.1 2.5 26.4 8.9 52.2 13.2 78.3 1.2 6.9 1 13.9 3 20.7 2.2 9.5 5.3 19.1 4.7 29-0.1 3-1.6 7.2-5.3 6.8-5.9-0.2-10.8-4.2-14.8-8.1-9.7-10.5-14.5-24.3-18.6-37.8-10-35.5-12.8-72.5-20.8-108.4-2.5-10.7-5.3-21.7-11.4-31-2.8-4.4-7.6-6.6-12.1-8.9-13-6.2-26.7-10.7-40.7-14.3-9.8-2.4-19.7-4.5-29.8-4.6-2.1 2.6-2.4 6.2-3.6 9.3-3.3 12.5-9.6 23.8-14.8 35.5-14.8 31.8-29.5 63.6-44.9 95-3.6 6.9-6.6 14.2-11.3 20.5-0.5-5.3 1.1-10.4 2.2-15.5 10.1-42.1 21.5-83.9 29.1-126.5 3.7-20.5 6.6-41.3 6.7-62.1-0.5-9.2-0.7-18.8-5.1-27.2-12.1-1.1-24.4-3.3-35.4-8.5-8.2-3.9-15.6-10.5-18.4-19.3-4.1-12.4-0.3-25.6 4.4-37.2 2.6-5.5 4.7-11.4 8.4-16.3 12.7-4.8 26.1-9.1 39.8-9.1 9.2-0.2 18.5 4.2 23.5 12 8.4 12.5 11.2 27.6 14.6 42 6 2.2 12.6 1.4 18.4-1.1 8.4-3.4 15.5-8.9 23.2-13.5 23.3-13.1 41.9-32.7 64.7-46.5 8.6-4.9 17.5-9.4 26.4-13.6 9.4-4 18.7-8.1 28.6-10.3z" fill="#32DE34" stroke="#32DE34"/>
	<path d="m1512.9 392.9c4.9 0.7 8.9 3.9 13.2 6.2 35.4 21.4 70.2 43.9 107.2 62.5 14.9 7.4 30.2 14.5 46.2 19 7.3 2 14.9 3.5 22.5 2.9 7-13.3 15-27 27.9-35.4 7.2-4.7 16.4-6.1 24.7-3.8 9.5 2.6 17.5 8.7 24.7 15.2 1.2 1.2 2.6 2.2 3.4 3.8 1.5 5.5 7.9 8.1 8.9 13.7-0.6 7 0.1 14.2-2.3 20.9-0.5 2.8 0.1 5.7 0.1 8.6-1.5 7.7-5 15.6-11.1 20.8-6.8 5.5-15.9 6.8-24.4 6.9-10.5 0-20.9-1.6-31.3-3.2-7.1 8.3-6 20-4.2 29.9 0.8 5.6 2.8 11 2.9 16.7-1.9 7.9 2.3 15.4 2 23.3 1.4 6.3 1.5 12.9 3.1 19.2l0.6-4.2c0.3 1.8 0.7 3.7 0.6 5.6-0.6 4.1-0.8 8.4 0.6 12.4 1.5 4.6 0.8 9.5 1.9 14.1 0.6 2.6 1.2 5.3 1.3 8 0.2 11.3-0.1 22.7 0 34 0 7.9-3 15.6-1.7 23.6-0.6 4.8-2.2 9.9-5.4 13.6-1.3 1.7-3.4 1.3-5.3 1.3-8-23.7-10-48.8-13-73.5-3.2-25.6-5.2-51.7-14.2-76-18.4 7.9-36.6 16.6-53.7 27.2-12 7.5-23.4 16.5-31.2 28.5-12.5 19.2-22.8 39.6-33.4 59.8-13.5 25.7-26.3 51.8-41.2 76.7-3.8 5.8-7.2 12.2-12.6 16.7-2.1-7.7-4.6-15.3-7-23 6.3-19.2 12.3-38.5 17.7-58 6.8-24 13.2-48.2 20.7-71.9 1.9-5.5-0.2-11.4-3-16.1-5-8.1-13.2-13.4-21.6-17.6-14.7-7.2-30.7-11.2-46.7-14.8-19.2-4.2-38.7-7.1-57.9-11.2-6.4-1.3-12.4-3.9-19-4.5-3.9-0.8-8.1-0.5-11.8-1.9-6.1-5.6-11.7-11.8-17.9-17.2 6.1-5.7 14.6-7.8 22.6-9 23.9-2.4 47.8 2.2 71.1 6.9 26 5.1 51.6 12.1 78 14.6 8.6 0.3 18.1 1.2 25.9-3.2 14.7-9.5 29.5-18.9 42.8-30.3 6.4-5.7 12.6-12 16.1-19.9-14.5-12.7-27.8-26.6-41.3-40.4-20.8-20.6-41.6-41-62.1-61.8-4.5-5.2-10-9.7-13.4-15.7z" fill="#32DE34" stroke="#32DE34"/>
	<path d="m871.2 562.7c11.9-1.9 23.6-6.3 35.8-5 4 0.2 5 4.8 3.8 8-2.6 8.1-8 15.2-14.5 20.5-33.1 22.5-55.1 57-84.2 83.9-4.1 3.4-8.3 7.8-14 8.1-3.6-1.4-3.2-6-3.1-9.1 1.8-15.3 7.4-29.8 11.5-44.6 1.3-5 3.3-10.2 1.6-15.3-1.1-3.5-5.3-3-8.2-3.2-4.7 0-9.3-1.4-13.9-0.6-7.5 0.9-16 2-21.3 8.1 3.7 0.4 7.8 0 11.2 1.7 2.3 4.3-1.9 8.8-2.6 13.1 2.1 2.6 5.1 4.5 6.3 7.7 0.3 2.6 0 5.1-0.2 7.7-2.4 7.5-9.2 12.6-16.1 15.9-5.2 2.3-11.3 4.5-16.8 1.8-1.3-4.5-0.6-9.1-0.5-13.6-2.3 0.3-4.5 0.7-6.4 1.9-8.2 4.6-16.2 10.1-25.7 11.7-4.4 0.7-8.4 3-11.4 6.2-7.1 7.5-11.5 17.4-13.1 27.5-0.6 5.3-0.8 11.3 2.4 15.9 1.6 2.5 4.5 3.5 7.1 4.6 6.3-2.3 11.6-6.6 17-10.5 7.8-5.7 15.5-11.7 24.3-15.7 4.5-2 9.8-3.2 14.5-1.4 4.9 2.3 7 7.9 8 12.9 1.5 8.3 1.6 16.8 0.5 25.2-0.6 3.3-1.3 7.1-4.1 9.3-3.6 2.2-7.7-0.1-11.1-1.7-5.1-2.4-10.2-6.4-16.2-5.4-2.2 0.4-5.2 2.1-4.4 4.8 2 5.2 6.3 9.1 8.1 14.4 2 4.9 0.9 10.8-2.8 14.6-6.2 6.8-14.7 10.8-22.6 15.3-10.5 5.3-20.1 12.3-29.3 19.6-13.9 11.3-25.7 25.3-33.5 41.5-3.4 7.3-6.7 14.6-10.7 21.5-1.1 1.7-2.2 3.7-4 4.8-1.5 0-2.6-1-3.6-1.9-5.3-4.8-9.7-10.5-15.7-14.4-4.4-2.8-10-1.5-14.5 0.4-9.2 4.1-14.7 12.9-21 20.2-5.7 7.1-12.2 14.2-14.6 23.1-1.4 4.1 2.3 8.9 6.7 8.2 4.6-1 8.7-3.5 12.8-5.8 3.8-0.3 7.5 0.2 10.9 2 0 2.4-0.1 4.8-0.4 7.2-3.6 3.7-6.6 7.8-9.8 11.9-2.2 2.7-2 6.3-0.9 9.5 5.8 0.2 10.6-4.5 16.5-3.8 3.3 0.4 3 4.4 2.3 6.8-2.4 8.5-7.4 16.2-8.8 25.1-0.3 2.4-0.2 5.2 1.4 7.2 1.5 1 3.5 0 5.1-0.1 14.1-3.7 27.5-9.6 41.4-13.7 12.5-3.4 27.2-1.8 37.2 7 8.8 7.6 13.9 18.1 20.3 27.6 6.8 10.9 15.9 20.3 26.1 28.1 17.1 13 36.6 22.3 53.9 35.1 9.5 7.1 18.4 15.1 25.1 24.9 3.1 4.7 5.1 10.1 6.2 15.6 0 3.2 0 6.4 0.2 9.7-1.5 11.7-7.5 22-13.4 31.9-5.2 7-10.3 14-15.8 20.8-4.9 5.2-9.1 11-13.4 16.6-7 9.6-14 19.7-16.6 31.5-1.3 5.3-0.9 10.8 0.4 16 5.5 23 13.3 45.4 17.4 68.8 0.9 6.9 2.5 14.2 0.3 21-0.8 3.1-4.1 5.1-7.2 4.2-7.4-1.5-12.3-8.2-15.6-14.5-11.5-23.1-14.1-49.3-22.3-73.5-2.5-7.3-6.9-13.8-10.7-20.5-19.6-33-42.4-64.1-59.4-98.6-9.1-18.3-16.5-37.5-21.8-57.3-2.9-10.2-4.1-20.7-7.1-30.9-1.9-6.5-4.3-13-8.8-18.2-4-4.7-10.5-5.4-15.7-8.2-20.5-10-38.5-24.5-54.8-40.4-10.7-10.7-20.5-22.3-28.9-34.9-10.1-15.1-18.4-32-20.6-50.2-2.6-20.5 3.8-41.1 14.6-58.4 1.9-3.5 4.8-6.5 6.1-10.3 4.6-4.3 8.3-9.5 12.5-14.2 4.2-5.3 9.8-9.3 14.1-14.5 4.6-5.2 9.9-10.3 12.5-16.9 1.7-3.5-1-7.3-4.4-8.3-9.4-3.5-19.7-3.7-29.4-5.6-2.2-0.2-2.2-2.9-1.2-4.3 2.3-3.5 5.7-6.2 8.9-8.9 13.6-10.5 28.5-19.3 43.6-27.6 10.5-5.6 21.1-11.5 32.7-14.4 19.4-5.2 38.9-10.1 57.8-16.8 15.8-5.9 31.4-13 45-23.1 10.3-7.6 11.2-22 20.9-30.1 10.6-9 23.8-14.3 36.6-19.3 33.8-12.5 69.7-18.2 105.5-22.9m-61.7 47.1c-0.4 2.8-0.4 5.5 0 8.3 1.1-2.7 1.2-5.6 0-8.3m-179.5 86.1c-6.8 0.8-13 4-19.1 6.9-6.4 2.9-11.6 7.7-16.3 12.8-0.9 4.1-1.1 8.4 0.6 12.3 2.5 6.9 8.1 13.4 6.2 21.2-0.6 4.4-4.1 7.3-7.1 10.2-3.3 3.6-6.9 7.2-11.5 9.1-4.8 2-9 5.3-13.3 8.2-11.6 7.4-22.6 16.2-30.2 27.8-5 7.5-6.7 16.6-8.7 25.3-1.1 8.5-2.8 18 1.6 25.9 1.7 3.4 6.5 2.5 9.1 0.8 3.2-2.5 5.8-5.7 9.8-7.2 7.4-7.8 12.9-17.3 18.2-26.6 5.5-7.7 10.7-16 18.4-21.8 2.5-1.3 4.9-2.9 7.4-4.1 4.3-0.4 9-0.9 12.8 1.7 6.9 3.3 14.4 6.4 22.1 6 8.7-0.9 15.1-8 18.8-15.4 2.2-5.4 1.4-11.3 1.6-17 0.2-13.7-1.5-27.4-3.3-40.9-2.2-12.2-3.2-24.8-6.8-36.7-3.4 0.2-6.8 0.9-10.3 1.5m58.4-2c-0.8 3.7-1.4 7.7 0.1 11.3 0.5-3.7 0.5-7.5-0.1-11.3m-36.1 297.1c0.4 2.7 0.8 5.4 1.4 8 2.9 11.2 4.5 22.6 8.6 33.5 2.1 6.8 3.2 14 6.4 20.5 1.3 7.7 4.6 14.8 6.3 22.4 2.9 7.8 6.9 15.1 9.9 22.9 2.7 7.1 8 12.7 10.6 19.8 1.8 5.5 5.8 9.8 9.2 14.4 6 7.2 13.7 14.4 23.5 15.1 3.5 0.6 6.3-2.2 7.5-5.2 2.5-6.2 3.6-12.9 7.4-18.5 5.7-8.2 12-16.2 15.6-25.5 1.7-3.9 1.6-8.4 0.7-12.5-1.5-4.1-4.6-7.3-7.5-10.5l-0.4-2.4c-4.6-4.9-9.8-9.2-15-13.4-4.2-3.2-7.9-7-12.8-9.2-5.9-6.6-13.5-11.3-20.8-16.3-4.2-2.8-7.1-7-11.1-9.9-3.3-2.4-6.3-5.1-9.6-7.4-4-2.6-7-6.6-11.2-8.9s-6.6-6.7-10.2-9.7c-2.9-2.4-5.1-5.6-8.5-7.2z" fill="#32DE34" stroke="#32DE34"/>
	<path d="m1109.5 569.9c6.5-2.2 13.4 0.1 19.8 2.1 15.8 5.6 30.5 13.7 45 21.9 18.2 10.3 35.8 21.5 53.7 32.2 15 8.2 31.8 12.1 48.1 16.6 19.8 5.4 40 9.8 58.6 18.6 8.1 4 16.9 9.2 19.8 18.4 1.7 5-0.1 10.2-2 14.9-1.5 3.9 0.6 7.9 3 10.9 3.6 4.3 7.3 8.5 11.8 11.8l3.6 3.3c1.5 2.9 4.1 5.3 4.7 8.6 0.1 3-3.5 3.4-5.7 3.9-4.3 1-8.9 0.2-12.5-2.5-14-9.8-25.6-22.9-40.3-31.7-3.8-2.1-8.2-4.3-12.6-3-3.7 1.4-5.1 5.6-5.7 9.2-1.3 7.2-0.7 15.7 5 21 6.6 6 15.7 7.6 23.4 11.6 8.4 3.9 15.5 11.5 17.2 20.8 2.4 11.7-1.9 23.2-3.9 34.5 2.7 3.1 6.1 6.1 7 10.3 0.5 2.5-2.2 3.6-4.2 4-5.1 0.8-10.5 0-15.5 1.3-1.6 0.3-2.7 1.8-2.4 3.4 0.5 5.4 3.8 10.1 7.3 14 5.3 5.8 11.5 11.1 14.8 18.4 3.5 7.7 1.7 17.2-3.6 23.7-6.6 8.1-16.2 12.7-24.7 18.4-5.6 3.7-11.4 8-13.9 14.5-1.3 2.8-0.9 6-0.2 9 3.2 13.6 8.7 26.6 11.6 40.3 0.6 3.2 1.2 6.6 0.2 9.8-1.1 2.8-4.5 1.6-6.5 0.6-6.6-3.6-11.9-9.2-17.3-14.3-0.1 0.2-0.4 0.6-0.5 0.7-2 2.6-1.9 6-1.9 9 0.1 5.5 0.5 11-0.1 16.5-2.6-2.7-2.6-7-5.7-9.1-6.6-15.8-12.8-31.8-22.2-46.2-3.4-4.9-7.2-10.2-12.9-12.5-3.9-1.6-8.2 0.4-10.7 3.5-6 7-8.4 16.2-11.2 24.7-2.9 8.6-5.2 17.5-9.6 25.5-1.3 1.9-2.8 4.7-5.4 4.3-2.3-0.2-3.5-2.5-4.5-4.3-4.3-8.6-5.8-18.2-8.3-27.3-4.9-18.5-9.9-37.5-20.5-53.7-7.5-11.6-18.5-21.1-31.5-25.9-10.6-4.2-22.1-4.7-33.2-6.7-7.4-0.8-15.2-2.6-22.4-0.2-3.1 0.9-2.6 4.8-0.8 6.8 7.6 10.3 20.3 16.4 25.9 28.3 3 6.8 3.2 15.2-0.1 22-2.6 5.3-8.8 7.9-14.4 7.8-8.1-0.1-15.9-3-23.2-6.3-11.6-5.6-22.7-12.7-31.6-22.1 4.6 21.2 9.1 42.4 14.3 63.4 1.6 5.7 2.8 11.5 5.1 17 1.1 3.1 4.3 4.7 7.4 5.2 9.6 1.2 19.3-0.6 28.9-0.2 3.6 0 6.9 2.4 8 5.8 2.2 5.9 0.7 12.2-0.6 18.1-3.3 12.3-8.5 24.1-15.7 34.6-20.3 33-30.1 70.9-41.8 107.4-10.2 31.9-21.8 64.3-42.8 91-4.1 4.9-8.1 10-13.1 14.1-3.2 2.7-8.1 1.5-10.4-1.8-5.2-6.6-7.3-15-9.3-23.1-2.2-9-2.6-18.2-2.6-27.4-1.7-49.8-18.2-97.3-27.1-146-2.4-12.4-3-25.2-7.6-37.1-1.9-4.9-4.7-9.8-9.4-12.6-4.1-2.6-9.3-2.3-13.9-1.5-9.5 2-18.3 6.6-27.7 9-9.1 2.6-19.2 3.1-27.9-1-8.8-4-15.8-11.6-19.3-20.5-5.2-13.1-4.9-27.5-3.4-41.2 2.6-20.6 8.9-40.5 17.3-59.4 3.5-7.6 7.2-15.1 11.9-22 6.2-9.3 12.3-18.8 17-29 2.3-5.3 4.9-10.8 4.4-16.7-2.8-8.8-9.4-16-12-25-3.7-10 0.8-21.6 8.8-28.2 6.6-5.3 15.9-5.2 22.4-10.6 6.2-5.7 6.9-14.6 8.2-22.4 0.8-5.8 4.3-11.2 9.6-13.9 17.3-9.3 38.3-8.6 55.2-18.7 5-2.8 7.6-8.6 7.1-14.1-0.8-8.7-4.4-16.8-7.5-24.8-0.6-2.6-3.8-2.2-5.8-1.6-8.1 2.7-14.7 8.8-22.8 11.6-1.7 0.4-4.3 1-5.4-0.8-1.8-3.3-0.6-7.2 0.1-10.6 1.8-6.6 3.5-13.5 7.7-19.2 7.1-10 15.4-19.4 25.5-26.5 5.6-3.7 12.8-7.3 19.6-4.7 5.9 2.6 9.2 8.9 10.9 14.9 2 9.2 0.9 18.7 3.3 27.8 6.9-3.2 13.6-6.7 20.6-9.6 11.8-5.3 23.9-10.3 34.3-18 2.2-0.8 4.3-1.9 6.3-3.1 1.8 0.6 3.7 1.2 5.5 1.8 3.5 3.4 5.9 8 10.5 10.1 2.6 1.1 5-0.7 7.2-2l-0.1 1.4c5-2.4 5.8-8.3 7.1-13.1 1.5-5.2-1-10.3-1.2-15.5-0.2-4.6-0.5-9.3 0.1-14 1.1-3.3 3.2-5.7 4.3-8.6m53.5 81.7c-16.4 0.8-32.6 3-49 3-12.1 0-24.5 0.6-36.4-2.2-4.7-1-9.3 1.1-13.7 2.4-10.1 3.1-20.3 6.3-29.6 11.5-2.2 1.5-5.3 2.9-6 5.7-0.7 3.7 2.5 6.5 5.5 8 19 8.7 39.6 13.8 57.9 24.2 8.2 4 15.7 9.5 21.6 16.4 6.2 8.1 9.2 18 12.7 27.4 3.6 9.6 6.8 19.4 9.8 29.2 3.3 10.6 7.8 20.7 11.8 31.1 3.3 8.6 7.3 17 12.7 24.4 3.2 3.4 6.5 7.8 11.7 7.6 6 0.6 11.4-2.8 15.8-6.6 3.1-2.4 7-5.3 11.1-3.7 6.5 3 10 9.6 13.8 15.3 5.6 7.6 7.2 17.2 11.5 25.5 4.3 8.6 8.2 18 16 24 3.5 3.1 9.3 2 11.8-1.8 2.4-3.5 2.9-7.9 3.8-12 1.2-10.6 0-21.3-0.3-32-0.2-3.7-1.4-7.5-0.4-11.2 2.7 1 4.6 3.3 6.6 5.3 4.4 4.7 9.5 8.6 14.3 12.8 5.5 3.9 11 8.8 18.1 9.3 3.3-0.4 5.6-3.2 5.6-6.4 1.7-9.3-0.9-18.6-1.8-27.8-1.9-15.6-5.8-31.4-2.9-47.1 1-5.3 4.2-9.9 8.9-12.6-0.6-1.1-1-2.4-2.1-2.9-5.7-1.8-11-4.8-16-7.9-6.9-3.6-14.3-6.1-21.3-9.7-6.5-3.8-13.3-6.9-19.9-10.4-8.2-5.2-16.3-11.1-21.2-19.6-2.3-3.5-2.1-7.9-1.9-11.8 0.3-4.4 2.8-8.9 7-10.6 6.8-3.1 14.4-3.8 21.1-7 4.8-3.1 8-8 11.9-12 2-2.2 4.9-2.9 7.6-3.9-0.4-1-0.2-2.4-1.2-3-2.6-1.9-5-4-7.1-6.5-5.2-1.6-9.3-5.6-14.5-7.1-9.8-3.8-20.1-6-30.5-7.3-12.8-1.8-25.8-1-38.7-1-4.8-0.2-9.4 0.9-14.1 1m-84.2 86.4c-1.5 13.6-2.8 27.7 1.2 41 1.4 5.2 4.9 9.7 9.3 12.8 2.2 1.7 6 1.4 6.9-1.7 3.1-8.4-0.6-17.3-4.1-25-4.5-9.1-9.4-17.8-13.3-27.1m-117.6 3.3c-6.8 3.3-10.5 10.3-15.1 15.9-3.7 2-8 2.3-12 3.5-4.9 1.3-8.8 4.7-12.8 7.6-3.4 2.7-7.1 5.6-8.9 9.8-1.3 3.1 1.6 5.5 4.2 6.4 8.9 3.2 18.5 2.9 27.6 5.4 2 0.7 4.5 1.5 5.4 3.6 2.4 4.5 2.4 9.6 2.6 14.6 0.1 4.6 2.9 8.6 6 11.7 3.4 3.3 7 6.9 11.7 8.3 2.1 0.7 4.7-0.3 6-2.1 4-5.5 4.5-12.9 9.3-17.8 2.8-2.9 7.2-2.5 10.6-1 8.7 3.6 12.5 13.6 21.1 17.3 5.9 2.5 12.6 0.3 17.8-2.8 4-2.3 5.9-7.3 4.9-11.7-1.3-6.3-5.1-11.6-9.3-16.3-5.8-6.1-12.5-11.6-20.4-14.7-4.9-2.1-10.4 0.3-15.2-1.9-6.2-2.4-10.1-8.1-13.2-13.7-3.8-6.6-6.3-14-11.1-19.9-2.1-2.6-6.1-4.1-9.2-2.2m53.8 11.7c-0.5 1.9-1.2 4.4 0.8 5.6 5.3 0.8 10-2.5 15.1-2.9 5.5 0.3 9.7 4.1 13.7 7.6 3.2 2.8 7.5 2 11.2 0.9 0-7.3-5.3-13.3-11.1-17-6-3.8-13.7-6.3-20.8-4-4.4 1.3-7.6 5.5-8.9 9.8m-97.9 111.2c-4.2 3.9-6.6 9.4-9.9 14.1-5.5 9.9-13.8 17.7-19 27.8-2.7 5-5.7 9.9-8.2 15-1.2 2.8-2.6 7.3 0.9 9 4.6 1 9.2-0.6 13.6-1.5 8.4-1.9 16.7-4.6 25.4-4.2 8.3-0.6 17.3 2.3 22.8 8.8 6.1 6.7 8.6 15.6 10.8 24.2 2.6 11.5 4.7 23.1 6.5 34.7 1 8.8 3.6 17.3 4.1 26.1 3.3 19.5 6.4 39.3 13.8 57.8 3 6.6 6.2 13.6 11.9 18.2 3.5 2.9 9.5 3.1 12.4-0.7 5.5-5.3 6.8-13.2 7.1-20.4-1.1-9.5-1.5-19.1-2.9-28.6-0.3-5.1-0.6-10.6 1.7-15.2 7.3-5 16.3-6 24.7-8.1 2.5-1 4.4-3.8 3.5-6.5-2.8-9.5-8.3-17.9-13.6-26.2-5.3-9.6-10.3-19.3-15-29.2-7.5-13-14.3-26.5-23.4-38.5-4.5-7.3-11.2-12.8-16.4-19.5-7.3-7-14.8-13.9-22.9-20-7.1-5.1-14.5-9.8-22.1-14.2-2-1.1-3.6-2.8-5.8-2.9z" fill="#32DE34" stroke="#32DE34"/>
	<path d="m399.8 1080.9c2.7-2.8 5.4-6.1 9.3-7.3 0.3 0.2 1 0.5 1.3 0.7 1 4.9 2.1 9.8 2.4 14.7-0.8 8.6-5.1 16.2-8.4 24-16.4 37.1-29.6 75.5-45.8 112.7-1.9 7.1 0.9 14.6 5.1 20.3 6.2 8.4 15.3 14 24.3 18.9 31.2 16 66 22.4 98.9 33.8 12.2 5.8 26.2 6.1 38.5 11.9 3 2 4.9 5.1 7.6 7.4-0.2 2.1-1 4-2.7 5.3-9 8-21.9 8.9-33.4 8.4-18.1-1-35.7-5.9-53-10.9-24.1-7.1-47.7-15.8-71.9-22.3-9.5-2.3-19.2-4.6-29-4.7-4 0.1-8.1 0.5-11.6 2.4-15.9 8.1-31.9 16.1-46.4 26.6-6.4 4.8-12.6 10.2-16.6 17.2 11 12 21.4 24.4 31.3 37.3 23.7 29.3 48.8 57.4 72 87 1.5 2 3.2 4.1 3.7 6.6-5.5-0.5-9.8-4.3-14.3-7-15.4-10.4-29.8-22.2-44.6-33.6-17.9-12.2-33.8-27-51-40.1-14.7-11.2-30.5-21.7-48.5-27-7.7-2.2-15.7-3.7-23.7-3.2-3.4 6-7.7 11.5-12.1 16.8-7.1 8-15.6 15.5-26.2 17.9-8.3 2-17.1-0.3-24.3-4.8-11.9-7.4-20.5-18.8-28.3-30.2 1.6-12.3 3.5-24.7 8.3-36.1 2.9-6.8 7.5-13.4 14.4-16.7 7.1-3.5 15.3-3.3 23-2.7 10.2 1 20.2 3.6 30 6.2 7.6-7.4 8.2-18.7 7.3-28.6-1.1-9.7-1.8-19.3-2-29.1-0.8-26.3-2.6-52.6-2.8-79-0.1-10.7 0.1-21.4 2.2-31.9 1-4.2 1.9-9 5.5-11.9 1.5-1.3 3.6-0.5 5.2 0 2.8 12.3 5.4 24.8 6.2 37.3-0.6 5.1-0.4 10.2 0.9 15.2 1.4 5.8 0.3 11.7 1.3 17.6 0.8 4.4 1 9 2.6 13.3 0.8 2.4 0.9 5 1.2 7.6 1.7 15 4.1 30.1 8.1 44.7 10.3-2.7 20.2-6.5 30.1-10.2 16.6-6.5 33.3-13.5 47.6-24.4 8.3-6.3 14.7-14.7 20.9-23 22.1-30.4 41.5-62.5 62.6-93.6 7.8-11.2 15.6-23 24.8-33.5z" fill="#32DE34" stroke="#32DE34"/>
	<path d="m1314.4 1133.5c18.6-24.2 42.7-44.8 71.1-56.4 2.9 5.8 7.1 11.5 13.3 14.1 5.4 2.5 11.5 1.3 17 2.9 3.4 1 4.7 4.7 5.1 7.9 1.5 9.3-2.2 18.5-6.3 26.6-7.8 14.8-18.3 28-29.7 40.2-8.1 8.6-17 16.6-26.8 23.2-3.8 2.4-7.7 4.7-12.1 5.6-2.8 0.5-6.6 0.3-7.7-2.9-2.3-6.2 0.6-12.7 1.7-18.8-10.2 5.6-19.2 13.2-29.5 18.6-6.3 3.3-13.4 6.1-20.7 5.1-2.8-0.1-4-3.3-4-5.6 0-4.9 1.4-9.6 2.9-14.2 5.9-16.7 15-32.2 25.7-46.3z" fill="#32DE34" stroke="#32DE34"/>
	<path d="m1511.1 1121c8.8 2.4 15 9.8 20 17 8.4 12.3 13.7 26.3 18.6 40.3 10.6 30.9 17.1 63 28.2 93.8 3.3 8.5 6.8 17.2 12.7 24.4 3.5 4.5 9.1 6.4 14.1 8.9 15.4 6.9 31.4 12.7 48 16.1 6.1 1.4 12.4 1.6 18.6 1.3 3.2-12.6 5.1-25.4 9.3-37.7 13.5-39.7 26.7-79.6 41.5-118.9 1.8-3.8 2.5-8.3 5.6-11.3 0.7 11.1-1.3 22.2-2.3 33.2-2.9 24.9-5.8 49.9-7.8 74.9-2.2 26.3-3.5 52.7-1.9 79.1 1.3 13.4 2.3 27.7 9.7 39.3 11.7-0.3 23.5 0.5 34.7 4.1 7.1 2.3 13.9 6.2 18.5 12.1 4.2 5.6 6.3 12.5 6.3 19.5 0.6 14.1-4.2 27.6-9.4 40.5-9.2 4.6-18.6 8.8-28.5 11.6-6.8 1.8-14 3.1-20.9 1.4-6.9-1.5-12.7-6.1-16.6-11.8-8.1-11.2-12.1-24.6-17-37.3-6.4-1.1-12.9 0.2-18.4 3.5-9 5-16.2 12.5-24.6 18.3-17 12.4-34.2 24.6-51.2 36.9-14.9 10.9-29.7 21.9-45.4 31.7-7.6 4.6-15.3 9.3-23.8 12.1-2.9 0.7-6.9 1.8-9-1-1.5-1.2 0.4-2.7 1.1-3.7 11.1-12 23.6-22.5 36-33.1 17.8-14.9 35.8-29.5 53.2-44.8 8.9-7.9 17.6-16.2 25.4-25.2-14.9-11.9-30.1-23.6-46.5-33.4-13.2-8-27.7-14.8-43.3-16.1-23.9-2.2-48-1.6-72-1.9-9.7-0.3-19.3 0.6-29 0.4-13.3 0.2-26.7-0.5-40-0.6-10.9-0.4-21.9-0.6-32.6-3.3-1.7-0.7-4.4-1-4.5-3.4 2.5-2.5 5.5-4.4 8.1-6.8 3-2.4 5.6-5.7 9.6-6.7 7.7-2.1 15.6-2.8 23.4-4.3 35.8-6.3 71.2-15.1 107-21.7 3.5-0.8 7.5-0.7 10.5-2.9 5.5-4 9.2-10 11-16.5 3.2-11.6 2.2-23.8 0.5-35.6-3.7-23-10.9-45.3-17.9-67.5-3.2-10.4-6.7-20.8-8.6-31.6-1.5-7.7-5.7-14.6-7.1-22.2 2-7.1 4.7-14 6.7-21.1z" fill="#32DE34" stroke="#32DE34"/>
	<path d="m784.7 1472.8c3-2.3 6.8-0.5 9.9 0.7 7.8 4.2 13.6 11.3 18.3 18.6 23.2 33.9 49.5 65.5 73.3 98.9 1.4 1.8 2.5 4 4.3 5.5 7.2 5.1 16.7 5.3 25 3.2 13.8-3.7 25.8-11.8 37.1-20.1 15.5-11.7 29.6-25 43.9-38 7.5-6.9 14.9-13.9 22.9-20.1 7.7-5.1 13.3-12.7 20.2-18.8 4.4-3.8 8.9-8.1 14.6-9.9 2.8-1 5.6 0.8 6.5 3.5 2.6 8.3 0.1 17.3-3.6 24.9-6.3 12.6-15.8 23.3-25.6 33.3-25.6 26.2-55.6 47.7-81 74.1-5.1 5.7-10.1 11.5-13.5 18.4-2.6 5.2-2.2 11.2-2.7 16.9-1.1 13-1.4 26.1-1 39.1 0.5 9.5 1.6 19.4 6.2 28 10.4-1.4 20.7-3.8 31.2-5 38.7-4.5 76.8-12.7 115.3-18.9 10-1.5 20-3.7 30.2-4-0.3 0.9-0.7 1.9-1 2.8-17.5 10.4-36.8 17.1-55.6 24.7-8.4 3-16.5 7.1-24.9 10.1-20.8 7.9-42.3 14.3-62.7 23.3-17 7.5-33.7 16.7-46.2 30.8-2.8 3.5-6.3 6.8-7.6 11.2 2.8 6.6 6 13.1 8 20.1 3 10.1 4.9 21.2 1.2 31.4-2.7 7.7-8.8 13.6-15.8 17.3-11.3 5.9-24.1 7.6-36.6 8.7-2.1 0-4.7 0.6-6.3-1.1-7.6-6.2-15.2-12.8-21.6-20.3-5.2-6.2-9.7-13.7-10.1-22-0.3-7.3 2.8-14.2 6.7-20.2 6.6-10 15.4-18.3 23.9-26.7-1.7-7.2-7.1-12.9-13.2-16.8-7.7-5-16.4-8.2-24.3-12.6-18.5-10.1-36.8-20.4-55.2-30.5-18.8-10.6-38.4-19.7-55.9-32.4-4.2-3.3-9-6.6-11-11.8-0.8-1.9 0.9-5.5 3.3-4.3 16.5 5 32.3 12 48.1 18.9 22.1 9.7 44 20 66.6 28.6 7.3 2.7 14.6 5.3 22.1 7.2 5.1-21.9 9.9-43.9 11-66.4 0.7-12-0.5-24.3-4.6-35.6-6.4-17.7-14.5-34.7-22.4-51.6-13.4-28.6-27.7-56.7-39.8-85.9-3.3-8.8-7.7-17.7-7.6-27.2z" fill="#32DE34" stroke="#32DE34"/>
	<path d="m1390.7 128.8c9.3-5.9 20.8-5.9 31.3-4.4 8.6 1.2 16.8 4.1 25.1 6.5 5.8 9.5 10.6 19.6 14 30.1 1.7 6.4 3.3 13.3 1.6 19.9-1.6 8-7.4 14.3-13.9 18.8-10.2 6.9-21.7 11.6-33.1 16.1-0.9 5.6 0.1 11.4 3 16.4 5.2 9.4 13.4 16.6 20.1 25 13.8 17.3 27.4 34.6 41.2 51.8 3.5 4.3 7 8.5 9.7 13.4 7.1 12 13.2 24.6 18.1 37.6 2.4 7.1 5.2 14.5 4.7 22.1-0.1 2.5-1.5 5.6-4.3 5.8-2-0.9-3.4-2.6-5-4-13.5-12.8-24.2-28.1-34.9-43.2-12.8-18.1-25.1-36.6-39.8-53.2-4.9-5.1-9.6-10.4-15.4-14.4-13.1 18.3-26 36.9-35.7 57.3-3.8 8.5-7.2 17.3-8.5 26.6-2.3 20-0.5 40-0.2 60.1 1.1 10 0.7 20.2 1.7 30.3 0.4 10.6 1.5 21.2 1.5 31.8 0.1 18 0.1 36 0 53.9 0.1 3.8-0.9 7.4-2.6 10.7-4.6 0.8-8-3.3-10.3-6.7-6.1-8.6-7.5-19.3-9.6-29.3-8.8-39.2-20.5-77.6-29.4-116.8-2.5-6.7-9.3-10.9-15.8-13-13-4-26.8-1.9-39.8 0.6-27.9 6.2-54.4 17.2-81.3 26.7-4.9 1.6-9.7 3.1-14.7 4.3-7.8 1.8-14.7 6.5-22.4 8.4-7-1.9-13.9-4.3-21-6.4 1.9-8.8 9.2-15.2 15.9-20.6 15.7-11.5 34.1-18.5 52.2-25.3 23.2-8.5 47-15.3 70.2-24.2 11.1-4.3 22.3-9 31.6-16.6 4.8-3.6 6.6-9.6 9.4-14.7 7.8-15.8 15.7-31.7 19.9-48.9 1.4-5.1 1.6-10.5 1.2-15.8-23.4-4.7-46.5-11-69.3-18.4-25.7-8.3-51.7-16.3-76.8-26.4 2.6-2.4 6.4-1.4 9.6-1.6 5.8-0.2 11.3 1.8 17 1.7 13.4-0.2 26.8 0.5 40.1 0.5 13.2 1.9 26.6 0.7 39.9 1 5.2-0.3 10.6 0.8 15.6-0.9-12.3-1.1-24.6-0.2-36.9-0.8 26.1 0.1 52.5 0.3 78.3-4.3 10.6-2.1 21.5-4.7 30.6-10.8 0.3-10.6-0.5-21.5 2-31.9 1.9-9.7 6.7-19.3 15.2-24.8z" fill="#00A8F3" stroke="#00A8F3"/>
	<path d="m500.7 135.6c14.5-6 30.4-11 46.3-8.7 12 1.8 21.8 11.4 25 22.9 1.3 5.3 1.3 10.8 2.6 16.1 1.8 7.1 0.7 14.4 1 21.6 3 1.9 6.2 3.5 9.6 4.6 13.4 6.6 28 10.7 42.9 12.3 13.6 1.9 27.3 1.3 41 1.3 7.3-0.3 14.7-0.1 22-0.9 24.3-0.6 48.6-0.8 72.9-0.6 5 0.3 10.6-0.2 14.8 3.1-0.3 0.3-1 0.8-1.4 1-7.4 3.8-15.8 5-23.8 7.2-27.6 7.1-56.5 8.1-83.6 17.4-14 4.5-28.2 8.7-42.6 11.8-0.5 5.1-0.1 10.4 1.3 15.3 5.1 18.6 14.7 35.5 23.8 52.4 2 3.6 3.7 7.4 7 9.9 9.4 7.7 21 11.7 32.2 15.9 22.2 7.6 44.9 13.4 67.2 20.4 18.4 5.9 36.9 12 53.5 22 4.6 3.1 9.5 6.1 13.2 10.4 1.5 2.7 3 5.4 4.6 8-1.5 0.9-3.1 1.9-4.7 2.8-7.2 1.9-14.4 3.9-21.6 5.7-4-0.8-7.7-3-11.7-3.9-18.9-3.9-37-10.9-55.4-16.6-20.2-6.2-40.7-12.2-61.9-13.4-10.1-0.2-21 0.8-29.4 6.9-3.3 2.8-7.1 5.8-7.8 10.4-3.7 19.8-8.4 39.4-12.5 59.1l-0.5 0.9c-4.7 22-9.8 43.9-13.5 66.1-0.7 3.3-0.9 6.8-2.3 9.9-5.7 4.3-10.8 9.3-16.8 13.3-2.3-9.6-2.6-19.5-2.8-29.2-0.5-37.7 0.5-75.3 0.8-113-0.9-15.4 0.2-31.1-3.8-46.2-4.4-15.5-12.8-29.5-21.7-43-7.3-10.8-15-21.5-23.1-31.7-0.9-1.8-2.8 0-3.7 0.8-27.9 24.7-52 53.3-77.9 80.1-7 7-13.9 14.2-21.4 20.6-1.1 1-2.3 1.3-3.8 1-0.4-0.7-0.7-1.3-1-2-1.1-4.2 1.3-8.2 3-11.8 10-18 24.4-32.9 36.6-49.3 11.4-15.6 23-31.1 34.4-46.7 5.8-8.2 12.1-15.9 18.6-23.6 6-7.7 12.1-17.3 9.4-27.5-10.7-3.7-21.4-7.7-31.2-13.4-6.5-3.9-12.9-8.9-15.7-16.2-2.2-5.4-2.8-11.4-1.6-17.1 2.1-12.9 7.9-24.8 13.5-36.4z" fill="#00A8F3" stroke="#00A8F3"/>
	<path d="m1019.5 430.5c21.1-4.1 42.5-6.6 63.6-10.1 41.3 7.4 81.5 20.7 118.8 40 68.2 34.9 129.2 83.6 178.7 142 53.3 62.7 93.7 136.5 117 215.5 12.4 42 19.8 85.4 21.9 129.1 0.8 26.2 0.5 52.5-2.6 78.5-2.4 21.1-6.1 42-11.2 62.6-0.1-2.1-0.3-4.1-0.5-6.1-2.4 2-4.7 4-6.6 6.4-3.2 3.8-7.3 6.8-10.4 10.6-13.9 13.1-27.5 26.6-42.2 38.9-8.6 7.8-18 14.7-26.8 22.3-21.7 16.9-43.9 33.1-67.2 47.7-9.2 6.8-19.8 11.4-29.3 17.7-5.7 3.9-12.1 6.4-17.9 10-9.4 5.6-19.4 10-29 15.1-6.9 3.6-13.9 7-21.2 9.8-27.7 13-56.5 23.7-85.4 33.6-41.4 13.3-83.4 24.5-126.3 31.9-12.3 3.4-25 5.1-37.6 7.2-35.8 5.8-71.9 10.3-108.2 12.4-35.7 1.6-71.6 1-107-4.8-39.4-6.4-78.2-19.4-111.9-40.9-15.3-9.9-30.1-21-42.8-34.1-7.6-7.4-15.1-15-21.4-23.6-5.3-6.5-10.5-13-15.2-20-12.8-17.2-22.9-36.1-33-54.9-7.7-16.3-15-32.7-21-49.6-3.9-13.2-8.7-26.2-12.1-39.5-2-8.7-5-17.2-6.8-26-2.5-11.8-4.7-23.8-6.4-35.8-4.3-29.4-7-59.2-6.1-88.9 16.5 18.4 35.9 34 56.1 48.2 8.3 5.8 17.4 10.9 23.8 19 8.4 10.4 11.5 23.7 18.1 35.2 20.2 34.6 27 74.9 43.8 111 14.6 31.9 41.5 56.4 54.8 89 6.9 19.1 11.9 38.9 20.7 57.3 4.2 8.8 9.2 18 17.6 23.5 8 4.5 20.4 3.2 24.7-5.8 4.4-9 3.3-19.3 2.2-28.9-3.5-23.8-11.7-46.4-18.8-69.3-2.2-5.8-3-12.3-1-18.3 4.9-15.5 15.1-28.5 24.6-41.4 5.5-6.7 10.7-13.8 15.8-20.8 4.3-5.7 8.1-11.7 11-18.3 4.7-10.1 6.1-22 2.3-32.6-4.9-14.3-16.3-24.9-27.7-34.1-16.6-13.3-35.3-23.7-51.5-37.5-5.2-4.4-9.8-9.6-13.6-15.3-11.3-16.1-22.1-33.2-37.3-46.4-6.8-6-15.9-10-25.1-9.1-13.7 1.6-25.1 9.8-36.7 16.4-3.3 1.6-6.5 3.9-10.2 4.1-1.9 0.3-3.2-1.8-3.3-3.5-0.5-6.5 3.3-12.5 2.6-19-0.7-10.4-6.7-19.5-13.1-27.3 0.3-2.4 0.4-4.8 0.4-7.2-3.4-1.8-7.2-2.3-10.9-2-3.6-1.6-7.8-4.9-6.2-9.4 2.6-6.9 8.7-11.7 14.1-16.4 4.8-3.4 9.9-8.4 16.3-7.4 1.8 0 2.9 1.6 3.8 2.9 2.7 4 3.8 9.1 7.6 12.4 3.3 2.9 8.7 2.7 11.9-0.2 11.3-9 15.8-23.3 23.2-35.2 11-18.4 23.8-36.8 42.2-48.6 19.6-11.5 40.2-22.1 57-37.8 9.3-8.8 17.4-19.7 19.7-32.5 2-10.5-0.1-21.5-4.5-31.2-2-4.4-5.3-8.2-9.6-10.4-2.8-1.8-6-2.9-9.3-2.5-4.7 0.5-9.5 1-14.1 1.8-7.2 1.8-14.7 2.8-22 1.7 2.7-1.1 5.4-2.2 8.1-3.2 5.3-0.3 10.3-1.9 15.5-2.9 8.2-1.4 16.4-2.3 24.6-3.4 4.4-0.6 9.2-0.5 13.1-3.1 3.3-2.2 4.9-5.9 5.9-9.5 1.6-5.7 2.8-11.8 2.1-17.7l-0.2-0.7 0.3-0.6c1.3-2.8 2.4-5.8 5.1-7.7 0.6 1.7 1.2 3.4 1.3 5.1 1.9 18.6-0.3 37.6 4.2 55.9 0.9 2.4 2 6.1 5.3 5.8 3.8-0.2 6.9-2.7 9.8-4.9 6.4-5.2 11.9-11.4 17.6-17.3 4.6-4.9 10.1-8.7 15.1-13.1 18.6-16 36.8-32.6 52.6-51.4 7.8-9.5 15.4-19.5 20.2-30.8 2.3-5.4 3.7-11.4 2.9-17.3-0.7-5.5-4.5-10.3-9.2-13.1-1.7-1.1-3.7-0.7-5.5-0.3-44.5 12-91.4 10.4-135.8 22.8-8.9 2.6-18 5.3-25.9 10.6-11.4 7.4-19.7 18.4-28 29.1-6.4 8.2-13.1 16.5-22 22.1-5.4 3.4-11.6 5.1-17.7 7.1-28.7 9.4-57.8 18-85.9 29.4 0-1.4 0.3-2.8 1.3-3.8 3-4 5.5-8.4 8.7-12.3 4.6-5.8 8.5-12 13.6-17.4 2.6-2.8 5-5.7 7.4-8.7 11.4-13.9 25.1-25.6 38.4-37.6 28.9-22.5 58.7-44 90.4-62.5 6.3-4.2 13.3-7.2 19.7-11.3 6.3-3.8 13.1-6.8 19.6-10.3 6.2-3.8 13.1-6.3 19.4-9.8 9.4-4.2 18.7-8.6 28.2-12.8 7.7-2.8 15-6.3 22.6-9.4 53-20.6 108-35.5 163.9-46.1m108.6 44.7c9.3 22 21.7 42.7 35.7 62 22.1 30.4 48.4 57.5 75.1 84 2.7 2.8 5.7 5.2 7.7 8.5-11.5-2.9-22.2-8.8-32.1-15.3-16.2-12-32.9-23.6-50.6-33.2-13.8-7.4-28.3-14.3-43.9-16.6-6-0.3-12.5-1.3-18.2 1.2-3.7 1.6-6.2 5.3-6.4 9.3-0.9 11.4 2.2 22.8 0 34.1-0.5 0.3-1.7 0.9-2.2 1.3-3.1 0-6.2 0.2-9.2 0-2.9-0.2-4.9-3.1-7.9-2.8-1.6-0.2-3.1 0.5-3.9 1.9-5.1-0.1-10.3-0.8-15.2 0.5-14.7 4.6-26.3 15.4-40.6 20.9-0.1-4.3 1.5-8.6 0.6-12.9-0.8-7.3-3-14.5-7.2-20.7-3.6-5.3-8.5-10.2-14.9-11.8-7.4-2.3-15 1.2-21 5.3-11.1 8.2-19.1 19.8-25.2 32.1-4.9 11.1-10.1 22.2-12.1 34.2-0.6 5.2-0.6 11.1 2.9 15.4 2.6 2.7 6.7 4.7 10.5 3.3 8.6-3 14.3-11.1 23-14 2.8-1.3 4.9 1.7 5.2 4.2 0.8 5.8 0.3 11.9-1.8 17.4-0.7 1.7-1.6 3.7-3.5 4.2-9.8 3.4-19.9 5.8-29.9 8.5-8.2 2.4-16.9 4.7-23.4 10.5-9.8 8.5-14.8 20.9-19.3 32.7-10.3 4.9-21.3 10.4-27.7 20.4-5.9 8.6-6 20-3 29.7 3.8 13.3 0.8 27.3-3.2 40.2-9.9 30.3-26.9 57.8-35.9 88.4-4.8 16.3-7.1 34-2 50.5 3.3 11.1 10 20.9 18.2 29.1 6 5.7 14 9.5 22.4 9.3 10.1 0.6 19.8-2.8 29.4-5.5 7.6-2.2 15.8-4.4 23.7-2.4 8 2.4 12.8 10.2 15.4 17.8 10.5 30.9 13.7 63.7 16.4 96.1-0.9 7.8-0.3 15.7 1.1 23.4 1.1 7.1 0 14.4 1.9 21.4 1.1 4.3 0.5 8.7 0.9 13.1 0 1.3 1.4 1.8 2.2 2.6 1.5 11.1 3.5 22 6.2 32.9 2.8 11.9 2.9 24.5 7.5 35.9 1.5 4 4.1 8.2 8.5 9.4 5.4 0.9 11-0.9 15.4-4 6.3-4.3 11.3-10.2 15.8-16.3 10.5-13.8 17.5-29.9 28.1-43.8 7.7-12.4 8.3-27.4 13.3-40.9 14.9-43.4 37.3-83.8 53.7-126.6 3.6-9.8 8-19.5 9.9-29.9 0.7-5.2 1.1-10.7-0.7-15.6-2.7-5.8-8.8-8.5-14-11.4-10.3-5.6-22.5-8.9-30.5-18-6.2-7.4-9.8-16.7-12-26.1-0.8-3.1-0.4-7 2.9-8.5 5.3 0.2 10.3 2 15.3 3.5 7.1 2.3 14.4 4 21.9 4.3 7.3-0.1 14.9-1.9 20.5-6.8 4.3-3.8 5.5-10 4.1-15.5-2.4-10.5-8.8-19.5-13.5-29.1-1.4-3.1-2.9-6.8-1.3-10.1 1.9-1.8 4.7-1.7 7.2-1.7 11.7 0 22.6 4.8 33.5 8.5 14.7 6.4 23.7 20.7 30.3 34.6 10.4 21.8 15.2 45.7 22.4 68.6 2.5 6.3 4.4 14.2 10.9 17.6 4.3-1.2 6.6-5.3 8.5-9.1 7-15.1 10.3-31.7 18.6-46.2 2.2-3.2 5.3-7.8 9.8-6.4 5.6 2.5 9.1 7.9 12.6 12.7 7.8 11.6 13.9 24.3 19.6 37.1 3.2 7.6 6.6 15.1 8.9 22.9 0.5 0 1.4 0.2 1.9 0.2 1.5-2.6 2.9-5.5 3.4-8.5 1.9-1.4 1.3-4.1 1.8-6 0.4-4.7 0.7-10.1 4.8-13.1 1.4 0.7 2.9 1.5 4.5 1.3 2.3 1.7 4.6 3.9 7.7 3.5 2.4 0.1 3.7-2.3 4.8-4 3.5-6.7 3.1-14.6 1.3-21.7-2.4-10.5-7.5-20.3-8.7-31.1-0.6-5.1 1.7-10.7 6.5-12.9 13.3-6.8 26.7-15.8 33-29.8 4.7-10.1 3.7-22.2-1.3-32-3.3-7-8.3-13.1-13.6-18.6 4.1-0.7 7.8-3 9.9-6.6 3.8-6.3 4.7-13.8 4.9-21 0.6-12.5-1.4-25-4.8-37-2.6-8.3-5.7-16.8-12.1-22.9 2.9 0.2 5.9 0.3 8.8 0.7 2.2 4 5.2 7.5 7.8 11.2 21.8 30.9 41 63.6 62.1 95.1 19.3 29.5 40.8 57.6 65.6 82.6 5.2 4.9 3 13.3 8 18.3 2.3 1.2 6.4 1.4 7.2-1.8 1.9-9.7-3.2-18.7-4-28.2-4.2-36.2-4.2-73.3-15.1-108.3-3.5-11.6-9.3-22.2-14.8-33-34-65.9-75.4-128.7-129-180.3-29.1-28-61.7-52.3-96.9-72-34.9-19-71.3-34.1-109.1-44.4m-33.7 112.8c0.7-4.7 1.1-9.6 0.1-14.3-1.5 4.7-1 9.7-0.1 14.3m242.8 397.1c-7.3 12.9-14.3 26.3-17 40.9-1 6.2-1.2 13.6 3.4 18.5 2.8 2.7 6.5 4.7 10.4 4.8 6.2-0.7 10.6-6.1 13.1-11.4 2.9-6.5 4.9-13.8 3.3-20.9-1.6-11.1-8.1-20.6-11.6-31.1-0.3-0.2-1.2-0.6-1.6-0.8m-62.9 21.9c0.9 10.5 5.8 20 10 29.5 3.7 6.8 8.8 14 16.7 16 1.7-0.7 3.8-1 4.9-2.6 4.2-5.2 5.5-12.6 3.2-18.9-2.5-7.4-8.8-12.7-15.2-16.9-6-3.5-12.5-6.8-19.6-7.1m136.2 18.9c-4.2 1.3-8.5 4.4-9 9.1-0.9 5.5 2 10.9 6 14.5 6.1 4.7 14 5.6 21.5 5.4 8.8 0.1 18.2-1.8 25-7.8 2.7-2.6 4.6-7.3 2.7-10.7-7.2-3.7-14.9-6.8-22.7-9.2-7.6-2.3-15.8-3.8-23.5-1.3m-41.5 48.9c-9.9 4.4-17.2 12.7-24.5 20.5-12.2 13.2-26.7 24.1-39.2 37-12.1 12.2-21.9 26.8-28.2 42.7-3 7.5-4.7 15.8-3.1 23.9 1 3.9 3.4 8.6 7.9 8.9 7.6 1.1 15.1-1.5 22.3-3.8 6-1.7 10.7-6 15.9-9.2 2.9-1.7 5.8-4.5 9.4-3.6 1.3 4-0.3 8.1 1.1 12.1 8.4 3.1 17.8 0.4 25.7-3 17.9-8.4 31.3-23.5 44.3-38 10.3-11.8 22.4-22.3 29.5-36.5 3.9-7.5 5.3-16.7 1.8-24.6-2.9-6.8-9.4-11.7-16.6-13-3.8-1.1-7.9-0.3-11.7-0.8-6.8-5.2-13.2-11.6-21.6-14.3-4.5-1.4-9 0.1-13 1.7m-281.4 46.8c-2.5 3-4.3 6.4-6.3 9.8-5.2 9.7-9.9 19.8-11.7 30.7-0.5 4.8-0.8 10.6 3.1 14.1 3.3 3 8.1 2.7 12.2 2.3 6.8-0.8 14.2-3.6 17.8-9.9 3.7-6.8 2.3-14.8 0.1-21.9-3.3-9.2-8.1-17.9-14.4-25.4-0.1 0.2-0.6 0.3-0.8 0.3z" fill="#00A8F3" stroke="#00A8F3"/>
	<path d="m1726.2 729.8c3.3 1.7 4.9 5.3 6.9 8.2 9.2 15.5 16.8 31.8 24.8 47.9 5.3 10.8 10 21.8 16 32.2 9.7 19.2 13.5 40.5 20.1 60.9 5.3 17 12.9 34.5 27.6 45.5 3.5 2.4 7.2 5.7 11.6 6.1 6-3.1 11.5-7.4 18.1-9.5 3.3-0.8 6.6-1.8 9.8-2.9 5.7-2.3 12-1.5 18-1.5 4.7-0.1 9.3 1 13.3 3.4 4.7 2.7 8.2 7.2 11 11.7 6 9.8 8.9 21.1 11.1 32.4 0.2 2.5 1.1 5.5-0.6 7.7-4.5 7.1-9.3 14-14.8 20.4-5.6 5.9-11.5 12.1-19.4 14.5-9.5 3.2-19.7-0.5-27.9-5.3-9.1-5.4-17.5-11.8-25.5-18.8-5.6 1.5-10 5.7-13 10.5-5.5 8.6-7.8 18.7-11.5 28.1-8.4 20.8-17.1 41.4-25.6 62.1-7 17.8-16.1 34.7-26.4 50.8-4.4 6.7-9 13.5-15.4 18.4-2.3 1.8-5.3 2.3-7.9 0.8 1.1-9.8 4.3-19.1 7.4-28.4 11.3-32.8 26.4-64.1 36.5-97.3 1.7-6.5 3.9-13.1 4.2-19.9-18.4-2.2-37-3.7-55.5-3.9-12.1 0.6-24.4 1.1-35.9 5-7.3 2.3-13.9 6-20.6 9.5-38.4 21.5-74.6 46.6-112.6 68.5-8.5 4.7-16.9 9.7-26.1 12.9-2.1 0.7-4.4 0.8-6.5 1 0.9-5 2.5-9.8 3.5-14.7 0.9-5.6 5.9-9.1 9.7-12.8 33.1-28.4 63.1-60.1 95.6-89.2 4.9-4.5 5.1-11.8 4.7-18-1.2-11.7-8.1-21.7-14.9-30.8-12.3-15.6-27.1-29-42-42-13.2-11.8-27.2-22.7-39.1-35.8-1.4-2.2-1.2-4.9-1.8-7.4-1.2-9.1-2.9-18-4.7-27 6.5 1.1 12.8 3.8 18.4 7.3 4 2.8 8.2 5.5 12.6 7.8 15.2 10.1 28.6 22.5 42.1 34.6 16.2 14.7 31.9 30.2 49.2 43.7 8.6 6.3 17.6 13.2 28.5 14.8 20.6-1.6 41-5 60.9-10.5 8.7-2.3 17.2-5.5 24.8-10.3 0-4.3-1.7-8.3-2.6-12.5-10.6-43.5-20.3-87.2-29.6-131-2.1-9.6-3.9-19.3-5.7-29-0.8-2.8-1.1-5.5-0.8-8.2m-94.7 246.4c1.4-4 1.1-8.3 0.3-12.3-1.6 3.8-0.7 8.2-0.3 12.3z" fill="#00A8F3" stroke="#00A8F3"/>
	<path d="m185.3 735.3c1.8-1.6 4.1-1 6.2-0.6-0.7 6.6-2.6 12.9-4.2 19.3-11.1 40.4-27.5 79.3-37.2 120.1-0.8 3.8-1.8 7.6-1.9 11.5 13.2 1.7 26.5 3.1 39.8 4 20.2 0.5 41.4 1.4 60.1-7.4 16.7-7.8 32.4-17.5 48.2-26.9 20.3-12.3 40.5-25 60.9-37.1 13.3-7.7 26.4-15.7 40.7-21.5 3.2-0.5 6.5-0.4 9.7-0.2-0.3 4.8-2.1 9.2-3.7 13.6-3.2 5.2-7.6 9.7-12.3 13.5-33.2 28-63.4 59.3-96.1 87.9-4.3 5.3-4.6 12.9-3.7 19.4 2.5 12.6 10.1 23.3 17.9 33.1 17.3 20.8 38.3 37.9 58.3 55.9 6 5.4 12.1 10.7 17.2 17 7.1 6.8 15.7 12.1 22.5 19.3 1.2 5.3 1.9 10.9 2.3 16.4-10.4 3.2-21.4 0-30.8-4.7-20.3-10.3-37.2-25.9-54-41-12.4-11.6-24.7-23.4-37.3-34.8-10.4-9.2-20.9-18.5-33.1-25.1-3.6-1.8-7.5-3.6-11.6-3.6-11.8 0-23.5 0.5-35.2 1.3-11.6 1.3-23.5 2.4-34.5 6.8-2.9 1.2-5.9 2.6-7.9 5.1 4.6 13.7 5.1 28.3 7.7 42.4 2.1 11.8 5.5 23.5 7.2 35.3-0.8 5.3 1.4 10.4 2.2 15.6 0.7 4.4 2.3 8.6 2.7 13.1 0.8 7.9 3.6 15.4 4.3 23.3 0.8 4.8 2 9.5 2.1 14.4-0.6 0.1-1.8 0.2-2.4 0.3-11.8-23.4-22.4-47.4-34.5-70.7-12.4-23.9-25.4-47.8-42.4-68.9-6-7-12.5-13.9-20.5-18.7-2.8-2-5.3 0.9-7.7 2.1-11 6.4-23.1 12-36.1 12.6-10.1 0.5-20.2-4.3-26.1-12.5-8.7-11.5-12.2-26-14.4-40-1-3.6 2.1-6.2 3.8-9 7.8-11.1 16-23.2 28.7-29.2 7.4-3.6 16.1-2.6 23.5 0.6 11.8 5.1 21.7 13.5 31.5 21.6 0.7 0.4 1.4 1.4 2.4 1.1 5.4-2.1 9.7-6.3 12.7-11.2 5.6-9.2 7.9-19.9 12.3-29.7 7.8-18.5 15.8-37 23.6-55.5 9-20.9 16.8-42.3 27.7-62.4 2.9-5.5 6.2-11.6 11.4-15.9z" fill="#00A8F3" stroke="#00A8F3"/>
	<path d="m958.3 753.4c4.4-2.7 9.1 1.3 11.3 5 2.7 4.9 5 10.1 8.3 14.6 6.7 7.4 15.8 12.1 25.2 15.1 6.5 2.4 13.4 4.2 19.4 7.7 4.5 3.5 8.9 7.7 10.7 13.3 0.8 2.2-0.5 4.7-2.6 5.7-4.7 2.5-10.5 2-15.3 0-7.8-3.1-14.2-9-21.8-12.5-3.6-1.6-8.1-2.8-11.8-0.7-5.3 2.7-7.5 8.8-12 12.3-3.8 3.4-10.3 0.7-11.8-3.9-2.5-8.5 2.6-17.1 0.5-25.6-1.6-1.7-3.3-3.6-5.7-3.9-9.1-1.6-18.6-0.6-27.6-3 0.1-0.4 0.4-1.2 0.5-1.6 4.5-2 9.6-2.8 13.8-5.6 7.4-4.3 11.8-12.2 18.9-16.9z" fill="#00A8F3" stroke="#00A8F3"/>
	<path d="m541.7 1328c1 0.3 2 0.6 2.8 1.5 5.2 5.2 10.5 10.2 16 15 3.3 44.1 11.2 87.8 15.4 131.9 2.7 6.7 8.8 11.8 15.5 14.4 11.9 4.9 25 4.1 37.6 3.7 20.3-1.6 40.3-6.2 60.1-10.7 13.9-3.2 27.8-6.7 41.9-8.2 8.2-1.8 16.1-4.8 24.4-6.2 5.5-1.1 11.5-2.1 16.8 0.3 1.7 2.3 1.8 5.4 0.6 8-4.1 10.8-14.2 17.6-24.1 22.6-17.3 8.3-36 12.8-54.6 17-24.4 5.3-49 9.1-73.2 15.3-7.7 2.1-15.4 4.4-22.5 7.9-4.9 2.3-9.9 5.3-12.8 10-10 15-20.4 29.9-27.9 46.4-2.9 7-6.1 14.4-5.4 22.2 22.6 6.9 44 17 65.9 25.7 26.6 11 53.4 21.5 79.6 33.4 3 1.3 6 2.6 8.5 4.8-3.6 2.3-8.1 1.4-12.2 1.5-20.2-0.7-40.1-4.8-60.2-6.9-24.2-3.4-47.7-10.2-71.8-13.4-11.9-1.4-24-2.7-35.9-1-10.4 0.9-20.5 4.1-29.7 8.9-1 10-1.9 20.2-5.3 29.8-2.8 8.8-7.6 17.4-15.5 22.5-5.2 3.5-11.5 4.6-17.6 4.9-14.6-0.2-28.2-6.4-41.3-12.4-4.6-10.6-8.4-21.7-10.2-33.1-0.5-7.1-1.1-14.7 2.2-21.3 3.2-6.2 8.7-10.8 14.8-14 10.8-5.7 22.8-8.7 34.5-11.8 1.6-1.1 1.4-3.3 1.6-5 0.8-10.3-5.3-19.3-10.9-27.5-5.4-7.4-9.8-15.5-15.3-22.9-12.6-17.4-27.3-33.3-38.1-52-5.1-8.9-10.2-17.8-14.3-27.2-3.2-7.5-6.8-15.2-7.4-23.5-0.4-3 1.6-7.5 5.3-6.6 31.2 33.4 55.4 72.6 87 105.7 0.8 0.7 2.3 2.6 3.4 1.4 11.5-12.3 22.7-24.9 32.8-38.4 6.9-9.4 13.4-19.2 17.9-30 4.7-11.1 5.8-23.3 7.4-35.1 2.7-23.6 4-47.3 6-70.9 0.3-4.3 0.2-8.7 1.1-12.9 1.6-3.1 2.1-6.6 2-10-0.1-5.4 0.5-10.9 0.1-16.3 1-12.4 2.3-25.1 5-37.5z" fill="#00A8F3" stroke="#00A8F3"/>
	<path d="m1345 1377.9c1.9-2.4 6.2-2.5 8.2-0.1 5.6 5.8 7.9 14.2 7.7 22.1 0.3 9.8-0.6 19.6-3.1 29-6.1 24.3-15.6 47.6-24.9 70.8-2 3.9-3.8 7.9-4.9 12.1-3 9-6.6 17.8-9.3 26.9-3.4 11-6.8 22.7-4.9 34.3 2.4 7 6.8 13 10.9 19.1 9.7 13.4 20.4 26.3 33.3 36.7 2.2 1.8 4.6 3.2 7 4.6 8.7-7.3 18-13.7 27.5-19.9 35.8-26 70.2-53.7 105.9-79.8h0.3c3-0.3 5.5-2.1 8.2-3.2-1.5 2.4-2.9 4.8-4.2 7.4-9.7 12.1-20.8 23.2-30.9 35-26.6 29.5-52.8 59.4-76 91.6-9.2 13.4-18.5 27-24 42.4-0.9 3.5-2.8 7.3-1.9 10.9 11.8 9.2 24.1 19.3 29.9 33.5 4 9 2.8 19.8-2.4 28.1-7.3 12.2-19.4 20.3-31 27.9-7.7 1.7-14.9-2.5-22.5-3.2-7.6-2.1-15.1-5-21.6-9.4-7.1-4.9-12.1-13.1-11.9-21.9-0.8-14.2 4.2-27.7 8.2-41.1 1.1-2.7-1.9-4.3-3.6-5.6-8.1-5.7-18.4-5.1-27.9-5-10.3 0.4-20.7 0.1-31 0-15-1-30-0.5-45-1.4-22-0.1-44.1-1.3-65.9-4.6-7.4-1.5-15.2-2.5-21.7-6.5-2.2-1.2-3.1-3.6-2.8-6 11.3-2.7 22.9-3.1 34.4-4.1 14.4-0.4 28.7-1.1 43.1-1.2 12.3 0 24.6-1 37-1.2 14-0.8 28.2-1.6 41.9-4.8-5.7-23.4-12.5-46.7-23-68.4-1.7-5.5-3.9-11.1-8.8-14.5-6.1-7.4-13.4-13.7-20.5-20.1-2.7-4.5-7-7.6-11.8-9.6-14.1-10.5-27.9-21.4-42.1-31.8-18-13.6-36.3-27-53.6-41.5-6.4-5.6-13.1-11-18.1-17.9-1.2-1.4-0.9-3.3-0.9-5 3.9-0.6 7.6-2.5 11.6-2 6.4 0.9 12.6 3.2 18.3 6.2 38.6 20.8 79.1 37.6 118.1 57.5 2.7 1.3 5.8 0.9 8.7 0.9 9.8-2 17.9-8.6 24-16.3 11.2-14 18.4-30.7 25.1-47.1 8.3-20.6 14.7-41.9 23.5-62.2 4.6-8.1 6.1-17.3 9.3-25.9 2.1-5.4 4.1-11.2 8.1-15.7z" fill="#00A8F3" stroke="#00A8F3"/>
	<path d="m572 149.8c1.4 1.7 1.7 3.9 2.2 6 2.5 10 2.6 20.3 2.5 30.6 2.6 2.3 6.1 3.2 8.5 5.7-3.4-1.1-6.6-2.7-9.6-4.6-0.3-7.2 0.8-14.5-1-21.6-1.3-5.4-1.3-10.8-2.6-16.1z" fill="#117BAD" stroke="#117BAD"/>
	<path d="m1177.5 197.9c11.1-0.8 22.3 0.4 33.5 0.7 17.9 1.1 35.8 1.7 53.7 2.1 12.3 0.6 24.6-0.4 36.9 0.8-5 1.8-10.4 0.6-15.6 0.9-13.3-0.3-26.7 0.9-39.9-1-13.4 0-26.8-0.7-40.1-0.5-5.7 0.1-11.3-1.9-17-1.7-3.2 0.2-7-0.8-9.6 1.6l-3.3-1.8c0.4-0.3 1.1-0.8 1.4-1.1z" fill="#13A2E0" stroke="#13A2E0"/>
	<path d="m1498.6 1533.9c4.3-3.6 9-6.9 14-9.6 0 2.4-1.9 4.2-3.2 6.1-2.2 2.6-4.1 5.5-6.8 7.6 1.2-2.6 2.6-5 4.2-7.4-2.7 1.2-5.2 3-8.2 3.3z" fill="#13A2E0" stroke="#13A2E0"/>
	<path d="m1417.1 295.3c1.2-0.7 2.5 1.3 1.7 2.3-1.2 0.7-2.5-1.3-1.7-2.3z" fill="#515151" stroke="#515151"/>
	<path d="m825.7 391.1c3 2.3 5.8 5.5 6.7 9.2-1.7 1.8-4.6 1.1-6.8 1.6 1.6-0.9 3.1-1.9 4.7-2.8-1.6-2.7-3.2-5.3-4.6-8z" fill="#1274A3" stroke="#1274A3"/>
	<path d="m960.1 412.6c29.3-0.7 58.6-0.9 87.7 2.7 11.8 1.2 23.6 2.8 35.3 5.1-21.2 3.5-42.5 6-63.6 10.1-55.8 10.5-110.9 25.4-163.8 46.1-7.5 3.1-14.9 6.6-22.6 9.4-9.4 4.2-18.8 8.6-28.2 12.8-6.3 3.6-13.2 6.1-19.4 9.8-6.5 3.5-13.3 6.5-19.6 10.3-6.3 4.2-13.3 7.1-19.7 11.3-31.7 18.5-61.5 40-90.4 62.5-13.3 12-27 23.7-38.4 37.6-2.4 3-4.8 5.9-7.4 8.7-5 5.4-9 11.6-13.6 17.4-3.2 3.9-5.7 8.3-8.7 12.3-0.9 1.1-1.2 2.4-1.3 3.8-16.1 6.5-31.8 13.9-46.9 22.6-10.9 6.6-22 13.3-30.7 22.8-3.7 4.2-8.2 9-7.5 15.1 0.3 3.6 4.1 5.4 7.1 6.4 9.7 2.6 20.7 0.8 29.4 6.6 4.7 3.3 5.2 9.4 4.3 14.6-4.3 5.2-9.8 9.2-14.1 14.5-4.2 4.7-7.8 9.9-12.5 14.2-7.7 6.4-13.1 14.9-18.3 23.3-12.4 20.9-16.1 46.5-10.4 70.1 4.7 16.9 14.9 31.6 26.3 44.6-1 29.8 1.8 59.5 6.1 88.9 1.7 12 3.9 23.9 6.4 35.8 1.8 8.8 4.8 17.3 6.8 26 3.3 13.4 8.1 26.3 12.1 39.5 6 16.9 13.3 33.4 21 49.6 10.2 18.8 20.3 37.7 33 54.9 4.7 6.9 9.8 13.5 15.2 20 6.3 8.6 13.8 16.2 21.4 23.6 12.7 13.2 27.4 24.2 42.8 34.1 33.8 21.5 72.5 34.5 111.9 40.9 35.3 5.7 71.3 6.4 107 4.8 36.3-2.1 72.3-6.6 108.2-12.4 12.6-2.2 25.3-3.8 37.6-7.2 42.8-7.4 84.9-18.6 126.3-31.9 29-9.9 57.7-20.6 85.4-33.6 7.3-2.8 14.3-6.2 21.2-9.8 9.7-5.1 19.7-9.5 29-15.1 5.8-3.6 12.3-6.1 17.9-10 9.5-6.3 20.1-10.9 29.3-17.7 23.3-14.6 45.5-30.8 67.2-47.7 8.8-7.6 18.2-14.4 26.8-22.3 14.7-12.3 28.3-25.8 42.2-38.9 3.1-3.9 7.2-6.8 10.4-10.6 2-2.4 4.3-4.4 6.6-6.4 0.2 2 0.4 4 0.5 6.1-9.8 40.3-25.5 79.3-46 115.3-37.1 65.9-90.9 121.6-153 164.3-88.5 61.3-193.1 99.5-300.5 107.9-14.3 1.4-28.8 1.1-43.1 1.2-14-0.1-28 0.2-41.9-0.4-87.7-5.4-174.4-30.8-250.1-75.6-65.6-38.5-122.7-91.8-164.6-155.3-22.3-33.6-40.4-70-54-107.9-16.4-46-26.4-94.2-30.2-142.8-0.8-5.3-0.1-10.7-1.2-15.9-0.6-17-1.2-34.1-0.5-51.1 0.3 0.2 1 0.6 1.3 0.8 0.1-3.1 0.3-6.3 0.7-9.4 1-8.4-0.1-16.9 0.5-25.4 0.2-4.1 2.4-8.1 0.8-12.2-0.4-1.5-0.3-3.2-0.2-4.7 4.2-42.4 13.9-84.4 30.1-123.9 14.1-34.5 33.1-67 55.8-96.6 37.7-49.5 84.7-90.9 133.7-128.8 35.6-27.6 72.5-53.4 109-79.7 3.4-2.7 7.9-3.1 11.9-4.3 25.5-6.1 51.1-12 77-16.6 23.4-4.5 47.1-8 70.8-10.5 16.1-1.8 32.3-2.5 48.4-3.7z" fill="#0080FF" stroke="#0080FF"/>
	<path d="m1782.8 463.3c4 3 6.8 7.1 10.1 10.8-0.2 10.9-0.6 21.9-3.4 32.4-0.1-2.9-0.6-5.7-0.1-8.6 2.3-6.7 1.7-13.9 2.3-20.9-1-5.6-7.4-8.2-8.9-13.7z" fill="#4ACD48" stroke="#4ACD48"/>
	<path d="m1104 577c0.6-3.1 2.6-5.8 5.5-7.1-1.1 2.9-3.2 5.3-4.4 8.2-0.6 4.6-0.4 9.3-0.1 14 0.2 5.2 2.7 10.3 1.2 15.5-1.3 4.8-2 10.7-7.1 13.1l0.1-1.4c2-2.5 4.2-5.1 4.8-8.3 2.2-11.3-2.2-22.7 0-34z" fill="#4ACD48" stroke="#4ACD48"/>
	<path d="m1723.4 601c0.3-7.9-3.9-15.4-2-23.3 2.5 12.7 3.8 25.5 5.7 38.3l-0.6 4.2c-1.6-6.3-1.8-12.9-3.1-19.2z" fill="#4ACD48" stroke="#4ACD48"/>
	<path d="m1728.2 633.9c-1.3-4-1.2-8.3-0.6-12.4 1.8 8.6 2.5 17.4 4 26 2.4 16.1 1.8 32.4 0.6 48.6-0.6 5.8-1 11.7-2.6 17.4-1.3-7.9 1.7-15.6 1.7-23.6 0-11.3 0.2-22.7 0-34-0.1-2.7-0.7-5.3-1.3-8-1.1-4.5-0.3-9.4-1.8-14z" fill="#4ACD48" stroke="#4ACD48"/>
	<path d="m1290.9 955.9c0-3.1-0.1-6.5 1.9-9-0.1 7.4-0.7 14.8-0.5 22.1 0.1 6.4 1.8 12.6 3.4 18.8-4.4-7.8-7.3-16.2-10.6-24.5 3.2 2.1 3.1 6.5 5.7 9.1 0.6-5.4 0.2-11 0.1-16.5z" fill="#4ACD48" stroke="#4ACD48"/>
	<path d="m1128.1 475.2c37.8 10.3 74.2 25.4 108.5 44.4 35.2 19.7 67.8 44 96.9 72 53.5 51.6 95 114.4 129 180.3 5.5 10.7 11.3 21.4 14.8 33 10.9 35.1 10.9 72.1 15.1 108.3 0.8 9.5 6 18.5 4 28.2-0.7 3.2-4.9 3-7.2 1.8-4.9-5-2.7-13.4-8-18.3-24.8-25.1-46.3-53.2-65.6-82.6-21.1-31.4-40.2-64.1-62.1-95.1-2.5-3.8-5.6-7.2-7.8-11.2 9 1 18.1 2.9 27.2 2 2.9-0.4 7.4-1.1 7.5-4.8-0.4-5.7-5.6-9.3-9.6-12.6-1.2-1.1-2.4-2.3-3.6-3.3-6-9.2-5.4-20.6-7.2-31-1.3-9.9-4.3-21.3-13.8-26.4-27.4-14-58.4-17.4-87.6-25.7-4.1-1.3-8.5-2.1-12.3-4.3-2-3.3-5-5.8-7.7-8.5-26.7-26.4-52.9-53.5-75.1-84-13.7-19.5-26.1-40.2-35.4-62.2z" fill="#9FEAFF" stroke="#9FEAFF"/>
	<path d="m901.7 551.6c1.8-0.4 3.8-0.7 5.5 0.3 4.7 2.8 8.5 7.5 9.2 13.1 0.8 5.9-0.7 11.8-2.9 17.3-4.9 11.4-12.4 21.3-20.2 30.8-15.8 18.8-34 35.5-52.6 51.4-5 4.4-10.5 8.2-15.1 13.1-5.8 5.9-11.3 12-17.6 17.3-2.9 2.2-6 4.7-9.8 4.9-3.3 0.3-4.4-3.3-5.3-5.8-4.5-18.3-2.3-37.3-4.2-55.9-0.1-1.8-0.7-3.5-1.3-5.1-2.7 1.8-3.8 4.9-5.1 7.7l-0.3 0.6c-0.3-0.1-0.8-0.2-1-0.3-0.4-1.7-0.7-3.3-1.2-5-1.2-3.2-4.3-5.1-6.3-7.7 0.7-4.3 4.9-8.8 2.6-13.1-3.5-1.7-7.5-1.3-11.2-1.7 5.3-6.1 13.8-7.2 21.3-8.1 4.7-0.8 9.3 0.7 13.9 0.6 2.9 0.2 7.1-0.3 8.2 3.2 1.7 5.1-0.4 10.4-1.6 15.3-4.1 14.8-9.8 29.2-11.5 44.6-0.2 3.1-0.5 7.8 3.1 9.1 5.6-0.3 9.9-4.7 14-8.1 29.1-26.9 51.1-61.3 84.2-83.9 6.5-5.3 11.9-12.5 14.5-20.5 1.3-3.1 0.3-7.8-3.8-8-12.2-1.3-23.9 3.2-35.8 5-35.8 4.6-71.7 10.3-105.8 22.7-12.8 5-26 10.3-36.6 19.3-9.7 8.1-10.7 22.5-20.9 30.1-13.6 10.1-29.2 17.2-45 23.1-18.9 6.8-38.4 11.6-57.8 16.8-11.6 2.9-22.2 8.8-32.7 14.4-15.1 8.3-30 17-43.6 27.6-3.2 2.7-6.6 5.4-8.9 8.9-1.1 1.4-1 4.1 1.2 4.3 9.8 1.9 20 2.1 29.4 5.6 3.4 1 6.2 4.8 4.4 8.3-2.7 6.6-7.9 11.7-12.5 16.9 0.9-5.2 0.4-11.3-4.3-14.6-8.7-5.9-19.7-4.1-29.4-6.6-3.1-1-6.8-2.8-7.1-6.4-0.7-6 3.8-10.9 7.5-15.1 8.7-9.4 19.8-16.2 30.7-22.8 15-8.7 30.8-16.1 46.9-22.6 28.1-11.4 57.1-19.9 85.9-29.4 6-2 12.3-3.7 17.7-7.1 8.9-5.5 15.6-13.9 22-22.1 8.2-10.6 16.5-21.7 28-29.1 7.8-5.2 16.9-7.9 25.9-10.6 43.8-12.3 90.8-10.7 135.3-22.7z" fill="#000100" stroke="#000100"/>
	<path d="m973.9 590.8c6-4.2 13.6-7.6 21-5.3 6.3 1.7 11.3 6.5 14.9 11.8 4.2 6.1 6.4 13.4 7.2 20.7 0.9 4.3-0.7 8.6-0.6 12.9 14.3-5.4 25.9-16.3 40.6-20.9 5-1.3 10.2-0.6 15.2-0.5-0.8 1-1.6 2.1-2.4 3.1-10.5 7.7-22.5 12.8-34.3 18-7 2.9-13.7 6.5-20.6 9.6-2.4-9.1-1.3-18.7-3.3-27.8-1.7-5.9-5-12.2-10.9-14.9-6.8-2.6-13.9 1-19.6 4.7-10.1 7-18.4 16.4-25.5 26.5-4.1 5.6-5.9 12.5-7.7 19.2-0.7 3.4-1.9 7.3-0.1 10.6 1.1 1.8 3.7 1.2 5.4 0.8 8.1-2.8 14.7-8.8 22.8-11.6 2-0.6 5.2-1 5.8 1.6 3 8.1 6.7 16.2 7.5 24.8 0.5 5.6-2.1 11.4-7.1 14.1-17 10.2-37.9 9.5-55.2 18.7-5.3 2.7-8.8 8.1-9.6 13.9-1.3 7.8-2 16.7-8.2 22.4-6.5 5.3-15.8 5.3-22.4 10.6-8 6.6-12.5 18.2-8.8 28.2 2.6 9 9.2 16.1 12 25 0.5 5.8-2.1 11.4-4.4 16.7-4.8 10.2-10.8 19.6-17 29-4.7 6.9-8.4 14.5-11.9 22-8.4 18.9-14.7 38.8-17.3 59.4-1.5 13.7-1.8 28.2 3.4 41.2 3.5 9 10.5 16.5 19.3 20.5 8.7 4.1 18.9 3.5 27.9 1 9.4-2.4 18.2-7 27.7-9 4.6-0.8 9.8-1.1 13.9 1.5 4.7 2.7 7.5 7.7 9.4 12.6 4.6 11.9 5.3 24.7 7.6 37.1 8.9 48.7 25.4 96.2 27.1 146 0 9.2 0.3 18.5 2.6 27.4 2 8 4.1 16.4 9.3 23.1 2.3 3.3 7.2 4.4 10.4 1.8 5-4.1 9-9.2 13.1-14.1 21-26.6 32.6-59 42.8-91 11.8-36.5 21.5-74.4 41.8-107.4 7.1-10.5 12.4-22.3 15.7-34.6 1.3-5.9 2.8-12.3 0.6-18.1-1.1-3.4-4.5-5.7-8-5.8-9.6-0.4-19.3 1.4-28.9 0.2-3.1-0.5-6.3-2.1-7.4-5.2-2.3-5.5-3.5-11.3-5.1-17-5.2-21-9.7-42.3-14.3-63.4 8.9 9.4 19.9 16.6 31.6 22.1 7.3 3.4 15.1 6.2 23.2 6.3 5.7 0.1 11.9-2.4 14.4-7.8 3.3-6.8 3.1-15.1 0.1-22-5.6-11.9-18.3-18-25.9-28.3-1.7-2-2.3-5.9 0.8-6.8 7.3-2.4 15.1-0.6 22.4 0.2 11.1 2 22.6 2.5 33.2 6.7 13.1 4.8 24 14.3 31.5 25.9 10.6 16.2 15.7 35.2 20.5 53.7 2.5 9.2 4 18.8 8.3 27.3 1.1 1.7 2.3 4.1 4.5 4.3 2.7 0.4 4.2-2.4 5.4-4.3 4.4-8 6.7-16.9 9.6-25.5s5.2-17.7 11.2-24.7c2.5-3.1 6.8-5.1 10.7-3.5 5.7 2.3 9.5 7.6 12.9 12.5 9.4 14.4 15.6 30.5 22.2 46.2 3.3 8.3 6.2 16.7 10.6 24.5-1.6-6.2-3.3-12.4-3.4-18.8-0.2-7.4 0.4-14.8 0.5-22.1 0.1-0.2 0.4-0.5 0.5-0.7 5.4 5.1 10.7 10.7 17.3 14.3 2 1 5.4 2.3 6.5-0.6 1-3.2 0.4-6.6-0.2-9.8-2.9-13.7-8.4-26.7-11.6-40.3-0.7-3-1.1-6.1 0.2-9 2.5-6.5 8.3-10.8 13.9-14.5 8.5-5.7 18-10.3 24.7-18.4 5.4-6.5 7.1-15.9 3.6-23.7-3.3-7.3-9.5-12.6-14.8-18.4-3.5-4-6.8-8.6-7.3-14-0.3-1.6 0.8-3.2 2.4-3.4 5.1-1.3 10.4-0.5 15.5-1.3 2-0.4 4.6-1.5 4.2-4-0.9-4.2-4.4-7.2-7-10.3 2-11.4 6.3-22.9 3.9-34.5-1.7-9.3-8.8-16.9-17.2-20.8-7.7-4-16.8-5.6-23.4-11.6-5.7-5.3-6.3-13.8-5-21 0.6-3.6 2-7.8 5.7-9.2 4.4-1.2 8.8 0.9 12.6 3 14.7 8.8 26.3 21.8 40.3 31.7 3.5 2.7 8.1 3.5 12.5 2.5 2.2-0.5 5.8-0.9 5.7-3.9-0.6-3.3-3.2-5.7-4.7-8.6 4 3.4 9.2 6.9 9.6 12.6-0.2 3.7-4.6 4.4-7.5 4.8-9.1 0.8-18.2-1-27.2-2-2.9-0.4-5.9-0.5-8.8-0.7 6.4 6.1 9.5 14.6 12.1 22.9 3.4 12 5.4 24.5 4.8 37-0.2 7.2-1.1 14.7-4.9 21-2.2 3.6-5.9 5.8-9.9 6.6 5.3 5.6 10.3 11.6 13.6 18.6 5 9.8 6 21.9 1.3 32-6.3 14-19.8 23.1-33 29.8-4.8 2.3-7.1 7.8-6.5 12.9 1.2 10.8 6.3 20.6 8.7 31.1 1.8 7.1 2.2 15.1-1.3 21.7-1.1 1.8-2.4 4.1-4.8 4-3.1 0.4-5.5-1.8-7.7-3.5-1.7-1.7-4.9-3.2-6.8-0.8-3.9 5.4-3.5 12.4-4.4 18.7-0.4 3.1-1.8 5.9-3.4 8.5-0.5 0-1.4-0.2-1.9-0.2-2.3-7.9-5.7-15.4-8.9-22.9-5.7-12.8-11.8-25.4-19.6-37.1-3.5-4.8-6.9-10.2-12.6-12.7-4.5-1.4-7.6 3.2-9.8 6.4-8.3 14.5-11.6 31.1-18.6 46.2-1.9 3.7-4.2 7.8-8.5 9.1-6.5-3.5-8.3-11.3-10.9-17.6-7.2-23-12-46.8-22.4-68.6-6.6-13.9-15.6-28.2-30.3-34.6-10.9-3.6-21.8-8.5-33.5-8.5-2.5 0.1-5.3-0.1-7.2 1.7-1.6 3.3-0.1 7 1.3 10.1 4.6 9.6 11.1 18.5 13.5 29.1 1.4 5.4 0.2 11.6-4.1 15.5-5.6 4.8-13.2 6.7-20.5 6.8-7.5-0.4-14.8-2-21.9-4.3-5-1.5-10-3.3-15.3-3.5-3.3 1.5-3.7 5.3-2.9 8.5 2.2 9.3 5.8 18.7 12 26.1 8 9.1 20.1 12.3 30.5 18 5.2 3 11.4 5.7 14 11.4 1.9 5 1.5 10.5 0.7 15.6-1.9 10.4-6.3 20-9.9 29.9-16.5 42.8-38.8 83.1-53.7 126.6-5.1 13.4-5.6 28.5-13.3 40.9-10.5 13.8-17.5 29.9-28.1 43.8-4.4 6.2-9.5 12-15.8 16.3-4.4 3.1-10 4.8-15.4 4-4.4-1.2-7-5.4-8.5-9.4-4.6-11.5-4.7-24-7.5-35.9-2.7-10.8-4.7-21.8-6.2-32.9-2.6-20.1-4-40.3-6-60.4-2.7-32.4-5.9-65.2-16.4-96.1-2.5-7.6-7.3-15.3-15.4-17.8-7.9-2-16 0.2-23.7 2.4-9.6 2.7-19.3 6.1-29.4 5.5-8.4 0.2-16.4-3.7-22.4-9.3-8.2-8.1-14.9-17.9-18.2-29.1-5.1-16.5-2.8-34.3 2-50.5 9-30.6 26-58.1 35.9-88.4 4.1-12.8 7-26.9 3.2-40.2-3-9.7-2.9-21.1 3-29.7 6.3-10 17.3-15.4 27.7-20.4 4.5-11.8 9.5-24.2 19.3-32.7 6.5-5.8 15.2-8.1 23.4-10.5 10-2.6 20.1-5.1 29.9-8.5 2-0.5 2.8-2.5 3.5-4.2 2.1-5.5 2.6-11.6 1.8-17.4-0.3-2.4-2.4-5.5-5.2-4.2-8.7 2.8-14.4 11-23 14-3.8 1.5-7.9-0.5-10.5-3.3-3.5-4.3-3.5-10.2-2.9-15.4 2-12 7.2-23.1 12.1-34.2 6.6-12.3 14.6-23.9 25.7-32.1z" fill="#000100" stroke="#000100"/>
	<path d="m779.5 643.6c0.5-0.8 1.3-1.1 2.2-1.3-0.3 5.8-1.5 11.4-1.7 17.2-1.1 3.6-2.7 7.4-5.9 9.5-3.9 2.6-8.7 2.5-13.1 3.1-8.2 1.1-16.4 2-24.6 3.4-5.8-0.1-11.5 0.9-16.9 2.9-2.9 0.8-6.9 0.6-8.8 3.5 4.5 2.2 9.7 1.7 14.5 1.2 10.9-1.3 22.1-5.7 33-2.3 4.3 2.3 7.6 6 9.6 10.4 4.4 9.6 6.6 20.6 4.5 31.2-2.3 12.9-10.5 23.7-19.7 32.5-16.8 15.6-37.3 26.2-57 37.8-18.4 11.8-31.2 30.2-42.2 48.6-7.4 11.9-11.9 26.2-23.2 35.2-3.3 2.9-8.6 3.1-11.9 0.2-3.8-3.3-4.9-8.4-7.6-12.4-0.9-1.3-2-2.9-3.8-2.9-6.4-1-11.5 4-16.3 7.4-5.4 4.7-11.5 9.5-14.1 16.4-1.7 4.5 2.5 7.8 6.2 9.4-4 2.3-8.2 4.8-12.8 5.8-4.4 0.7-8.1-4.1-6.7-8.2 2.4-8.9 8.9-16 14.6-23.1 6.4-7.3 11.9-16.1 21-20.2 4.5-1.9 10.1-3.2 14.5-0.4 6 3.9 10.4 9.6 15.7 14.4 1 0.8 2.2 1.9 3.6 1.9 1.8-1.1 2.9-3.1 4-4.8 4-7 7.3-14.3 10.7-21.5 7.8-16.2 19.6-30.2 33.5-41.5 9.2-7.4 18.8-14.3 29.3-19.6 7.9-4.5 16.4-8.4 22.6-15.3 3.7-3.8 4.8-9.7 2.8-14.6-1.8-5.3-6.1-9.2-8.1-14.4-0.8-2.6 2.2-4.4 4.4-4.8 6-1 11.1 3 16.2 5.4 3.3 1.6 7.5 3.9 11.1 1.7 2.8-2.1 3.5-6 4.1-9.3 1-8.3 1-16.9-0.5-25.2-1.1-5-3.1-10.6-8-12.9-4.7-1.8-10-0.6-14.5 1.4-8.8 4-16.6 9.9-24.3 15.7-5.4 3.9-10.7 8.2-17 10.5-2.6-1.1-5.5-2.1-7.1-4.6-3.2-4.6-3-10.6-2.4-15.9 1.6-10.2 6-20 13.1-27.5 3-3.2 7-5.5 11.4-6.2 9.4-1.6 17.4-7.2 25.7-11.7 1.9-1.2 4.2-1.7 6.4-1.9 0 4.5-0.7 9.2 0.5 13.6 5.5 2.7 11.6 0.5 16.8-1.8 7-3.4 13.8-8.5 16.2-16z" fill="#000100" stroke="#000100"/>
	<path d="m1078.8 738c3.8 9.3 8.8 18.1 13.2 27.1 3.5 7.7 7.2 16.6 4.1 25-0.8 3-4.7 3.3-6.9 1.7-4.4-3-7.9-7.6-9.3-12.8-3.8-13.3-2.6-27.5-1.1-41z" fill="#000100" stroke="#000100"/>
	<path d="m1015 753c1.3-4.4 4.4-8.5 9-9.8 7-2.3 14.8 0.2 20.8 4 5.8 3.8 11.1 9.7 11.1 17-3.7 1.1-8.1 1.9-11.2-0.9-3.9-3.5-8.1-7.3-13.7-7.6-5.2 0.3-9.8 3.6-15.1 2.9-2.1-1.2-1.4-3.7-0.9-5.6z" fill="#000100" stroke="#000100"/>
	<path d="m497.5 812.8c5.2-8.4 10.6-17 18.3-23.3-1.3 3.8-4.2 6.8-6.1 10.3-10.8 17.3-17.1 37.9-14.6 58.4 2.3 18.2 10.6 35.1 20.6 50.2 8.4 12.6 18.2 24.2 28.9 34.9 16.3 15.9 34.2 30.4 54.8 40.4 5.2 2.8 11.7 3.4 15.7 8.2 4.5 5.2 6.9 11.7 8.8 18.2 3 10.1 4.2 20.7 7.1 30.9 5.3 19.8 12.6 39 21.8 57.3 17 34.5 39.8 65.6 59.4 98.6 3.8 6.7 8.3 13.1 10.7 20.5 8.2 24.3 10.8 50.4 22.3 73.5 3.3 6.3 8.2 12.9 15.6 14.5 3.1 0.9 6.4-1.2 7.2-4.2 2.3-6.8 0.7-14.1-0.3-21-4.1-23.3-11.9-45.8-17.4-68.8-1.3-5.2-1.7-10.8-0.4-16 2.7-11.8 9.6-21.9 16.6-31.5 4.4-5.6 8.6-11.4 13.4-16.6-9.5 12.9-19.8 25.9-24.6 41.4-2 6-1.2 12.5 1 18.3 7.2 22.8 15.3 45.5 18.8 69.3 1 9.6 2.2 20-2.2 28.9-4.3 8.9-16.8 10.2-24.7 5.8-8.4-5.5-13.4-14.7-17.6-23.5-8.8-18.4-13.8-38.2-20.7-57.3-13.3-32.6-40.2-57.1-54.8-89-16.9-36.1-23.6-76.4-43.8-111-6.6-11.5-9.7-24.8-18.1-35.2-6.4-8.1-15.5-13.1-23.8-19-20.2-14.2-39.6-29.8-56.1-48.2-11.4-13.1-21.6-27.8-26.3-44.6-5.6-23.9-1.9-49.6 10.5-70.4z" fill="#000100" stroke="#000100"/>
	<path d="m1101.7 565.8c5.7-2.5 12.2-1.5 18.2-1.2 15.6 2.3 30.1 9.1 43.9 16.6 17.8 9.6 34.4 21.2 50.6 33.2 9.8 6.6 20.5 12.4 32.1 15.3 3.8 2.2 8.1 3 12.3 4.3 29.3 8.3 60.3 11.7 87.6 25.7 9.5 5.1 12.4 16.5 13.8 26.4 1.8 10.4 1.2 21.9 7.2 31-4.5-3.3-8.3-7.5-11.8-11.8-2.4-3-4.6-7-3-10.9 1.8-4.7 3.7-9.9 2-14.9-2.9-9.1-11.7-14.4-19.8-18.4-18.6-8.8-38.9-13.2-58.6-18.6-16.3-4.5-33.1-8.4-48.1-16.6-17.9-10.7-35.5-21.9-53.7-32.2-14.5-8.2-29.3-16.3-45-21.9-6.3-2-13.2-4.3-19.8-2.1-2.9 1.3-4.9 4-5.5 7.1-2.2 11.3 2.2 22.7 0 34-0.5 3.3-2.7 5.9-4.8 8.3-2.2 1.3-4.6 3.1-7.2 2-4.6-2-7-6.7-10.5-10.1 3.9 0.1 7.9 0.5 11.6-0.7 0.5-0.3 1.7-0.9 2.2-1.3 2.2-11.3-1-22.7 0-34.1 0.1-3.8 2.6-7.6 6.3-9.1z" fill="#000200" stroke="#000200"/>
	<path d="m1337.2 985.1c0.4 0.2 1.3 0.6 1.7 0.8 3.4 10.5 10 20 11.6 31.1 1.6 7.1-0.4 14.4-3.3 20.9-2.5 5.3-6.9 10.7-13.1 11.4-3.9-0.1-7.7-2.1-10.4-4.8-4.6-4.9-4.4-12.3-3.4-18.5 2.6-14.7 9.6-28 16.9-40.9m2.3 9.4c-5.8 7-10.7 15.1-12.7 24.1-0.9 5.2-1.2 11.1 2.2 15.5 1.8 2.7 5.7 4.2 8.6 2.3 4-2.3 5.6-7.1 6.4-11.4 1.5-10.4-0.5-20.9-3.2-30.9-0.3 0.1-1 0.3-1.3 0.4z" fill="#000200" stroke="#000200"/>
	<path d="m1094.4 588c-0.9-4.7-1.5-9.7 0.1-14.3 1 4.8 0.6 9.6-0.1 14.3z" fill="#2496CD" stroke="#2496CD"/>
	<path d="m1072.2 609.5c0.7-1.4 2.3-2 3.9-1.9 3-0.3 5 2.6 7.9 2.8 3.1 0.3 6.1 0.1 9.2 0-3.7 1.2-7.7 0.9-11.6 0.7-1.9-0.6-3.7-1.2-5.5-1.8-2 1.2-4.1 2.3-6.3 3.1 0.8-0.9 1.6-1.9 2.4-2.9z" fill="#25B689" stroke="#25B689"/>
	<path d="m809.5 609.8c1.2 2.7 1.1 5.6 0 8.3-0.4-2.8-0.4-5.6 0-8.3z" fill="#4ACC49" stroke="#4ACC49"/>
	<path d="m779.7 635.9c0.5 1.6 0.8 3.3 1.2 5 0.3 0.1 0.8 0.2 1 0.3l0.2 0.7c0.7 5.9-0.5 12-2.1 17.7 0.2-5.8 1.4-11.4 1.7-17.2-0.8 0.2-1.7 0.5-2.2 1.3 0.2-2.7 0.5-5.3 0.2-7.8z" fill="#004362" stroke="#004362"/>
	<path d="m1328 1511.9c1.1-4.3 2.9-8.3 4.9-12.1-0.6 3.8-2 7.5-2.9 11.3l-2 0.8z" fill="#004362" stroke="#004362"/>
	<path d="m1163 651.6c4.7-0.1 9.3-1.2 13.9-1.1 12.9 0 25.9-0.8 38.7 1 10.4 1.2 20.7 3.4 30.5 7.3 5.3 1.5 9.3 5.5 14.5 7.1 2.1 2.5 4.5 4.6 7.1 6.5 1 0.6 0.8 2 1.2 3-2.7 1-5.6 1.7-7.6 3.9-3.9 4-7.1 8.9-11.9 12-6.7 3.2-14.3 3.9-21.1 7-4.2 1.8-6.7 6.2-7 10.6-0.2 4-0.4 8.3 1.9 11.8 4.9 8.5 13 14.5 21.2 19.6 6.6 3.5 13.4 6.6 19.9 10.4 6.9 3.5 14.4 6 21.3 9.7 5.1 3.1 10.3 6.2 16 7.9 1.2 0.5 1.6 1.8 2.1 2.9-4.7 2.7-7.9 7.3-8.9 12.6-2.8 15.7 1 31.5 2.9 47.1 0.9 9.2 3.5 18.5 1.8 27.8 0 3.3-2.4 6-5.6 6.4-7.1-0.4-12.5-5.4-18.1-9.3-4.8-4.2-9.9-8.2-14.3-12.8-2-2-3.9-4.3-6.6-5.3-1 3.7 0.1 7.5 0.4 11.2 0.3 10.6 1.5 21.3 0.3 32-0.8 4.1-1.4 8.5-3.8 12-2.5 3.8-8.3 4.9-11.8 1.8-7.8-6-11.8-15.4-16-24-4.3-8.3-5.9-17.9-11.5-25.5-3.8-5.7-7.4-12.3-13.8-15.3-4.1-1.6-8.1 1.3-11.1 3.7-4.3 3.8-9.8 7.2-15.8 6.6-5.2 0.2-8.5-4.2-11.7-7.6-5.5-7.4-9.5-15.8-12.7-24.4-3.9-10.3-8.4-20.5-11.8-31.1-3-9.8-6.1-19.6-9.8-29.2-3.6-9.4-6.6-19.3-12.7-27.4-5.9-6.9-13.4-12.4-21.6-16.4-18.3-10.4-38.9-15.5-57.9-24.2-3-1.5-6.3-4.3-5.5-8 0.8-2.8 3.8-4.2 6-5.7 9.3-5.2 19.5-8.4 29.6-11.5 4.4-1.3 9-3.4 13.7-2.4 11.9 2.8 24.2 2.2 36.4 2.2 16.6 0.1 32.8-2.1 49.2-2.9z" fill="#80FF00" stroke="#80FF00"/>
	<path d="m630 695.9c3.5-0.5 6.9-1.3 10.4-1.5 3.6 11.9 4.6 24.5 6.8 36.7 1.8 13.6 3.5 27.2 3.3 40.9-0.2 5.7 0.6 11.6-1.6 17-3.7 7.4-10.1 14.5-18.8 15.4-7.8 0.4-15.3-2.7-22.1-6-3.7-2.6-8.5-2.1-12.8-1.7-2.5 1.2-4.9 2.8-7.4 4.1-7.6 5.8-12.8 14-18.4 21.8-5.4 9.3-10.8 18.8-18.2 26.6-3.9 1.5-6.6 4.7-9.8 7.2-2.6 1.7-7.5 2.6-9.1-0.8-4.4-7.9-2.7-17.4-1.6-25.9 2-8.7 3.7-17.8 8.7-25.3 7.6-11.5 18.6-20.4 30.2-27.8 4.3-2.9 8.5-6.2 13.3-8.2 4.5-2 8.2-5.6 11.5-9.1 3-2.9 6.5-5.8 7.1-10.2 1.9-7.8-3.7-14.4-6.2-21.2-1.7-3.9-1.5-8.2-0.6-12.3 4.7-5.1 9.9-9.9 16.3-12.8 6-2.9 12.2-6.1 19-6.9z" fill="#80FF00" stroke="#80FF00"/>
	<path d="m917.1 864.2c2.2 0.1 3.9 1.8 5.8 2.8 7.6 4.4 15 9.1 22.1 14.2 8.1 6.1 15.6 13 22.9 20 5.2 6.7 11.9 12.2 16.4 19.5 9.1 12 15.9 25.5 23.4 38.5 4.7 9.9 9.7 19.6 15 29.2 5.4 8.2 10.8 16.7 13.6 26.2 0.9 2.7-1 5.6-3.5 6.5-8.4 2.1-17.4 3.2-24.7 8.1-2.3 4.6-2 10.2-1.7 15.2 1.4 9.5 1.8 19.1 2.9 28.6-0.3 7.2-1.6 15.2-7.1 20.4-3 3.8-8.9 3.6-12.4 0.7-5.8-4.7-9-11.6-11.9-18.2-7.4-18.5-10.6-38.3-13.8-57.8-0.5-8.8-3.2-17.3-4.1-26.1-1.8-11.6-3.9-23.2-6.5-34.7-2.2-8.5-4.7-17.5-10.8-24.2-5.5-6.5-14.5-9.4-22.8-8.8-8.7-0.4-17 2.3-25.4 4.2-4.4 1-9 2.6-13.6 1.5-3.5-1.7-2.1-6.2-0.9-9 2.5-5.1 5.4-10 8.2-15 5.2-10 13.5-17.9 19-27.8 3.3-4.6 5.7-10.1 9.9-14z" fill="#80FF00" stroke="#80FF00"/>
	<path d="m652.3 991c3.4 1.6 5.6 4.8 8.4 7.2 3.6 3 6 7.4 10.2 9.7s7.2 6.3 11.2 8.9c3.3 2.3 6.4 5 9.6 7.4 4 2.9 7 7.1 11.1 9.9 7.2 5 14.9 9.7 20.8 16.3 4.9 2.2 8.6 6 12.8 9.2 5.2 4.3 10.4 8.6 15 13.4l0.4 2.4c2.9 3.2 6 6.4 7.5 10.5 0.8 4.1 1 8.6-0.7 12.5-3.7 9.4-9.9 17.3-15.6 25.5-3.8 5.6-4.9 12.4-7.4 18.5-1.2 3-4 5.8-7.5 5.2-9.8-0.7-17.5-7.8-23.5-15.1-3.3-4.6-7.3-8.9-9.2-14.4-2.6-7.1-7.9-12.8-10.6-19.8-3-7.8-7-15.1-9.9-22.9-1.7-7.6-5-14.7-6.3-22.4-3.2-6.5-4.3-13.7-6.4-20.5-4.1-10.8-5.7-22.3-8.6-33.5-0.4-2.6-0.9-5.3-1.3-8z" fill="#80FF00" stroke="#80FF00"/>
	<path d="m719.5 678.4c5.4-2 11.1-3 16.9-2.9-5.2 1-10.2 2.6-15.5 2.9h-1.4z" fill="#0A4D75" stroke="#0A4D75"/>
	<path d="m710.7 681.8c1.8-2.8 5.8-2.6 8.8-3.5h1.4c-2.7 1.1-5.4 2.1-8.1 3.2 7.3 1.1 14.9 0.2 22-1.7 4.7-0.8 9.4-1.3 14.1-1.8 3.3-0.4 6.6 0.7 9.3 2.5-11-3.5-22.1 1-33 2.3-4.8 0.8-10 1.2-14.5-1z" fill="#238EBA" stroke="#238EBA"/>
	<path d="m954.8 1136.1c-1.3-7.7-2-15.6-1.1-23.4 2 20.1 3.4 40.3 6 60.4-0.8-0.8-2.2-1.3-2.2-2.6-0.4-4.4 0.2-8.8-0.9-13.1-1.7-6.9-0.6-14.2-1.8-21.3z" fill="#238EBA" stroke="#238EBA"/>
	<path d="m688.4 693.9c0.6 3.7 0.6 7.6 0.1 11.3-1.5-3.6-0.9-7.6-0.1-11.3z" fill="#47CD4B" stroke="#47CD4B"/>
	<path d="m961.2 741.3c3.2-1.9 7.1-0.4 9.2 2.4 4.8 6 7.2 13.4 11.1 19.9 3.1 5.6 7 11.3 13.2 13.7 4.8 2.2 10.4-0.3 15.2 1.9 7.9 3 14.6 8.5 20.4 14.7 4.2 4.7 8 10 9.3 16.3 1 4.4-0.9 9.4-4.9 11.7-5.2 3.2-11.9 5.4-17.8 2.8-8.6-3.7-12.4-13.7-21.1-17.3-3.4-1.5-7.8-2-10.6 1-4.8 4.9-5.3 12.4-9.3 17.8-1.3 1.8-3.8 2.8-6 2.1-4.7-1.4-8.3-5-11.7-8.3-3.2-3.1-6-7.1-6-11.7-0.2-4.9-0.3-10.1-2.6-14.6-0.9-2.2-3.3-3-5.4-3.6-9-2.5-18.7-2.2-27.6-5.4-2.6-0.9-5.5-3.3-4.2-6.4 1.7-4.2 5.4-7 8.9-9.8 4-2.9 7.9-6.3 12.8-7.6 4-1.2 8.3-1.5 12-3.5 4.6-5.8 8.3-12.8 15.1-16.1m-2.9 12.1c-7.1 4.7-11.5 12.5-18.9 16.9-4.2 2.8-9.3 3.5-13.8 5.6-0.1 0.4-0.4 1.2-0.5 1.6 9 2.4 18.5 1.4 27.6 3 2.4 0.3 4.1 2.2 5.7 3.9 2.1 8.5-3 17.1-0.5 25.6 1.5 4.5 8 7.3 11.8 3.9 4.6-3.5 6.7-9.6 12-12.3 3.7-2.1 8.2-0.9 11.8 0.7 7.6 3.6 14 9.4 21.8 12.5 4.8 2 10.6 2.5 15.3 0 2-1 3.4-3.5 2.6-5.7-1.9-5.5-6.2-9.8-10.7-13.3-6-3.5-12.9-5.3-19.4-7.7-9.4-3-18.5-7.6-25.2-15.1-3.4-4.5-5.7-9.7-8.3-14.6-2.2-3.7-6.9-7.7-11.3-5z" fill="#000102" stroke="#000102"/>
	<path d="m397.9 796.7c2.5-1.3 5.4-2.1 8.3-1.8 3.2 0.9 1.9 4.8 2 7.2-0.7 2.9-2.3 5.7-4.2 8 1.5-4.5 3.4-8.9 3.7-13.6-3.3-0.2-6.6-0.3-9.8 0.2z" fill="#0E648E" stroke="#0E648E"/>
	<path d="m1546.6 830.3c4.6 1.5 9.9 3.4 12.6 7.8-4.4-2.3-8.6-4.9-12.6-7.8z" fill="#0B5174" stroke="#0B5174"/>
	<path d="m420.3 927.9c-0.2-15.7 1.5-31.3 2.5-46.9l0.8 0.8c1.6 4-0.6 8.1-0.8 12.2-0.6 8.4 0.5 16.9-0.5 25.4-0.4 3.1-0.6 6.2-0.7 9.4-0.3-0.3-1-0.7-1.3-0.9z" fill="#1A7BDA" stroke="#1A7BDA"/>
	<path d="m583.5 915.5c3.1-4 6.2-8.2 9.8-11.9 6.4 7.9 12.3 16.9 13.1 27.3 0.6 6.5-3.2 12.5-2.6 19 0.1 1.7 1.4 3.8 3.3 3.5 3.7-0.3 6.9-2.5 10.2-4.1 11.6-6.6 23.1-14.9 36.7-16.4 9.2-1 18.3 3.1 25.1 9.1 15.2 13.1 26 30.2 37.5 46.5 3.8 5.7 8.4 10.9 13.6 15.3 16.2 13.8 34.9 24.2 51.5 37.5 11.5 9.2 22.8 19.9 27.7 34.1 3.8 10.6 2.4 22.5-2.3 32.6-2.9 6.5-6.8 12.6-11 18.3 5.9-9.9 11.9-20.2 13.4-31.9 0.9-3.2 0.8-6.5-0.2-9.7-1.1-5.5-3.1-10.9-6.2-15.6-6.7-9.8-15.6-17.9-25.1-24.9-17.3-12.7-36.8-22-53.9-35.1-10.2-7.8-19.3-17.2-26.1-28.1-6.4-9.5-11.5-20-20.3-27.6-10-8.8-24.7-10.4-37.2-7-13.9 4.1-27.3 10-41.4 13.7-1.7 0.1-3.6 1.1-5.1 0.1-1.6-2-1.7-4.8-1.4-7.2 1.3-8.9 6.3-16.5 8.8-25.1 0.7-2.4 1-6.3-2.3-6.8-5.8-0.7-10.6 4-16.5 3.8-1.2-3-1.3-6.6 0.9-9.4z" fill="#000101" stroke="#000101"/>
	<path d="m1369 1074.8c4-1.6 8.6-3.1 12.8-1.6 8.4 2.7 14.7 9.1 21.6 14.3 3.8 0.5 7.9-0.3 11.7 0.8 7.2 1.3 13.7 6.2 16.6 13 3.6 7.9 2.1 17.1-1.8 24.6-7.1 14.1-19.2 24.7-29.5 36.5-13 14.5-26.3 29.6-44.3 38-7.9 3.4-17.3 6.1-25.7 3-1.3-4 0.3-8.2-1.1-12.1-3.6-0.8-6.5 1.9-9.4 3.6-5.2 3.2-9.9 7.5-15.9 9.2-7.2 2.3-14.7 4.8-22.3 3.8-4.6-0.3-6.9-5-7.9-8.9-1.6-8.1 0.1-16.4 3.1-23.9 6.3-16 16.1-30.5 28.2-42.7 12.6-12.9 27-23.8 39.2-37 7.4-7.9 14.8-16.2 24.7-20.6m-54.6 58.7c-10.7 14.1-19.8 29.6-25.7 46.4-1.5 4.6-2.9 9.3-2.9 14.2 0.1 2.3 1.3 5.5 4 5.6 7.3 1.1 14.3-1.8 20.7-5.1 10.3-5.4 19.3-13 29.5-18.6-1.1 6.2-4 12.6-1.7 18.8 1.1 3.2 4.9 3.4 7.7 2.9 4.4-0.9 8.3-3.3 12.1-5.6 9.9-6.6 18.7-14.6 26.8-23.2 11.4-12.2 22-25.3 29.7-40.2 4.1-8.2 7.7-17.3 6.3-26.6-0.4-3.2-1.7-6.9-5.1-7.9-5.6-1.7-11.7-0.5-17-2.9-6.2-2.6-10.4-8.2-13.3-14.1-28.4 11.5-52.5 32.2-71.1 56.3z" fill="#000101" stroke="#000101"/>
	<path d="m1854.8 919c7.9-2.8 16.2-5.2 24.7-4.1 4.5 0.8 9.4 1.7 12.8 5.1-4.1-2.3-8.7-3.4-13.3-3.4-6 0.1-12.3-0.7-18 1.5-3.2 1.2-6.5 2.1-9.8 2.9 0.6-1.4 2.4-1.4 3.6-2z" fill="#2A99D1" stroke="#2A99D1"/>
	<path d="m1631.5 976.2c-0.4-4.1-1.3-8.4 0.3-12.3 0.8 4 1 8.3-0.3 12.3z" fill="#2499D1" stroke="#2499D1"/>
	<path d="m1302.6 968.5c1.8-2.4 5-0.9 6.8 0.8-1.6 0.2-3.1-0.6-4.5-1.3-4.1 3.1-4.4 8.5-4.8 13.1-0.5 2 0 4.7-1.8 6 0.7-6.2 0.4-13.2 4.3-18.6z" fill="#146896" stroke="#146896"/>
	<path d="m1339.5 994.5c0.3-0.1 1-0.3 1.3-0.4 2.7 10 4.7 20.5 3.2 30.9-0.8 4.3-2.4 9.1-6.4 11.4-3 1.8-6.8 0.3-8.6-2.3-3.4-4.4-3-10.4-2.2-15.5 2-9 6.9-17.1 12.7-24.1z" fill="#32DD35" stroke="#32DD35"/>
	<path d="m1274.3 1007c7.1 0.4 13.6 3.6 19.6 7.2 6.3 4.2 12.7 9.5 15.2 16.9 2.3 6.3 1 13.7-3.2 18.9-1.2 1.6-3.2 1.9-4.9 2.6-7.9-2-13-9.2-16.7-16-4.1-9.6-9-19.1-10-29.6m6.7 4.6c0.8 9.5 2.9 19.2 8.2 27.2 1.8 2.8 5.8 6.2 9 3.3 2.5-3.3 1.7-7.9 0.3-11.5-3.5-8-10-14.6-17.5-19z" fill="#000201" stroke="#000201"/>
	<path d="m1410.5 1025.9c7.7-2.5 15.9-0.9 23.5 1.2 7.8 2.4 15.4 5.5 22.7 9.2 1.9 3.5 0 8.1-2.7 10.7-6.8 6-16.2 7.9-25 7.8-7.4 0.2-15.4-0.7-21.5-5.4-4.1-3.5-7-9-6-14.5 0.6-4.6 4.8-7.7 9-9m0.9 1.5c-2.5 1.1-4.6 3.8-3.8 6.6 1.1 4.3 5.4 6.8 9.4 8.2 10.3 3.5 21.5 2.2 32 0.3 1.3-0.5 3.1-0.3 4.2-1.4-0.8-1.3-2.1-2-3.3-2.8-7.7-5-15.9-9.4-24.9-11.4-4.5-0.9-9.3-1.4-13.6 0.5z" fill="#000201" stroke="#000201"/>
	<path d="m1281 1011.6c7.4 4.5 14 11 17.4 19.1 1.4 3.6 2.3 8.2-0.3 11.5-3.2 2.9-7.2-0.5-9-3.3-5.2-8.1-7.3-17.9-8.1-27.3z" fill="#33DC35" stroke="#33DC35"/>
	<path d="m1411.4 1027.4c4.2-1.9 9.1-1.4 13.6-0.6 9 2 17.2 6.5 24.9 11.4 1.2 0.8 2.5 1.5 3.3 2.8-1.1 1.1-2.9 0.9-4.2 1.4-10.5 2-21.7 3.3-32-0.3-3.9-1.4-8.3-3.8-9.4-8.2-0.7-2.8 1.3-5.4 3.8-6.5z" fill="#32DD34" stroke="#32DD34"/>
	<path d="m1074 1154c2.8-10 10.6-17.3 15.6-26 4.1 9 9.7 17.8 10.1 28 0.4 5.5-1.3 11.6-5.8 15.1-5.1 4.4-13.7 4.3-18.1-0.9-3.7-4.5-3.6-11-1.8-16.2z" fill="#32DD34" stroke="#32DD34"/>
	<path d="m180.4 1054.4c2.2 6.7 3.1 13.7 4.6 20.6 3 15.3 6.3 30.6 8.4 46.1 0.2 1.6 0.2 3.3 0.2 4.9-2.2-0.9-3.2-3-4.3-4.9 0.6-0.1 1.8-0.2 2.4-0.3 0-4.9-1.3-9.6-2.1-14.4-0.7-7.9-3.5-15.4-4.3-23.3-0.4-4.5-2-8.7-2.7-13.1-0.8-5.2-3-10.3-2.2-15.6z" fill="#1CA5D3" stroke="#1CA5D3"/>
	<path d="m809.2 1084.7c0.9 3.2 1 6.5 0.2 9.7-0.2-3.3-0.2-6.5-0.2-9.7z" fill="#005E11" stroke="#005E11"/>
	<path d="m1087.6 1121.6c0.2 0 0.7-0.1 0.9-0.2 6.3 7.5 11.1 16.2 14.4 25.4 2.1 7 3.6 15.1-0.1 21.9-3.6 6.3-10.9 9.1-17.8 9.9-4.1 0.3-8.9 0.7-12.2-2.3-3.9-3.6-3.6-9.3-3.1-14.1 1.8-10.9 6.5-21 11.7-30.7 1.9-3.4 3.7-6.9 6.2-9.9m-13.6 32.4c-1.9 5.3-2 11.7 1.8 16.2 4.5 5.2 13.1 5.3 18.1 0.9 4.5-3.5 6.2-9.6 5.8-15.1-0.5-10.2-6-19-10.1-28-5 8.7-12.7 16-15.6 26z" fill="#000302" stroke="#000302"/>
	<path d="m200.6 1182.8c-1.3-5-1.5-10.2-0.9-15.2 1.9 9 2 18.3 3.2 27.4 0.4 6.2 1.6 12.3 1.5 18.6-1.6-4.3-1.9-8.8-2.6-13.3-0.9-5.8 0.2-11.8-1.2-17.5z" fill="#4AB74E" stroke="#4AB74E"/>
	<path d="m535.2 1380c0.6-4.7 0.4-9.5 1.5-14.2 0.4 5.4-0.2 10.9-0.1 16.3 0.1 3.4-0.4 6.9-2 10-0.4-4.1 0.2-8.1 0.6-12.1z" fill="#168DC4" stroke="#168DC4"/>
	<path d="m1212.9 1578.9c4.8 1.9 9.1 5.1 11.8 9.6-4.2-2.8-8.5-5.7-11.8-9.6z" fill="#1274A1" stroke="#1274A1"/>
	<path d="m1245.2 1608.6c4.9 3.4 7.1 9 8.8 14.5-1.5-1.3-2.2-3.2-3.1-4.8-1.8-3.3-4.2-6.3-5.7-9.7z" fill="#106B99" stroke="#106B99"/>
	<path d="m1343.8 1804.3c7.6 0.7 14.8 4.9 22.5 3.2-1.3 1-2.7 2.2-4.5 1.5-6.1-1-12.5-1.8-18-4.7z" fill="#0D5176" stroke="#0D5176"/>
</g>
</svg>